<svg width="605" height="363" xmlns="http://www.w3.org/2000/svg" xmlns:xlink="http://www.w3.org/1999/xlink" xml:space="preserve" overflow="hidden"><g><path d="M0 363 605 363 605 0 0 0Z" fill="#FFFFFF"/><path d="M45.1649 325.322 595.925 325.322 595.925 23.1917 45.1649 23.1917Z" fill="#FFFFFF"/><g><path d="M70.1995 325.322 70.1995 23.1917" stroke="#B0B0B0" stroke-width="0.672222" stroke-linejoin="round" stroke-dasharray="2.48722 1.07556" stroke-opacity="0.6" fill="none"/></g><path d="M70.1995 325.322 70.1995 328.263" stroke="#000000" stroke-width="0.672222" stroke-linejoin="round" fill="none"/><path d="M1.04247 0.697168 2.3961 0.697168 2.3961 5.37121 0.922993 5.0758 0.922993 5.83074 2.38823 6.12615 3.21669 6.12615 3.21669 0.697168 4.57032 0.697168 4.57032 0 1.04247 0 1.04247 0.697168Z" transform="matrix(1 0 0 -1 67.5263 337.588)"/><g><path d="M141.727 325.322 141.727 23.1917" stroke="#B0B0B0" stroke-width="0.672222" stroke-linejoin="round" stroke-dasharray="2.48722 1.07556" stroke-opacity="0.6" fill="none"/></g><path d="M141.727 325.322 141.727 328.263" stroke="#000000" stroke-width="0.672222" stroke-linejoin="round" fill="none"/><path d="M3.40969 3.30334C3.8062 3.21843 4.11561 3.04163 4.33793 2.77292 4.56113 2.50508 4.67273 2.17422 4.67273 1.78034 4.67273 1.17639 4.46486 0.708547 4.04909 0.376812 3.63332 0.0459527 3.0425-0.119477 2.27663-0.119477 2.02017-0.119477 1.75583-0.0940937 1.48362-0.0433268 1.2114 0.00743996 0.930433 0.0835902 0.640712 0.185124L0.640712 0.984701C0.870038 0.850781 1.12125 0.749685 1.39434 0.681413 1.66831 0.61314 1.95453 0.579004 2.25299 0.579004 2.77204 0.579004 3.16768 0.681413 3.43989 0.88623 3.7121 1.09105 3.84821 1.38908 3.84821 1.78034 3.84821 2.14183 3.72173 2.42411 3.46877 2.62718 3.21581 2.83112 2.86394 2.93309 2.41317 2.93309L1.69894 2.93309 1.69894 3.61451 2.446 3.61451C2.85301 3.61451 3.1646 3.69591 3.38081 3.85871 3.59701 4.02152 3.7051 4.2561 3.7051 4.56245 3.7051 4.87667 3.5935 5.11782 3.3703 5.28587 3.14798 5.45481 2.82894 5.53927 2.41317 5.53927 2.1856 5.53927 1.94183 5.51432 1.68187 5.46443 1.42191 5.41542 1.13613 5.33927 0.824523 5.23598L0.824523 5.97385C1.13963 6.06138 1.4346 6.12703 1.70944 6.17079 1.98428 6.21455 2.24337 6.23644 2.4867 6.23644 3.11603 6.23644 3.61363 6.09333 3.9795 5.80711 4.34624 5.52177 4.52962 5.13576 4.52962 4.6491 4.52962 4.30948 4.43247 4.02283 4.23815 3.78913 4.04384 3.55543 3.76769 3.3935 3.40969 3.30334Z" transform="matrix(1 0 0 -1 139.053 337.588)"/><g><path d="M213.254 325.322 213.254 23.1917" stroke="#B0B0B0" stroke-width="0.672222" stroke-linejoin="round" stroke-dasharray="2.48722 1.07556" stroke-opacity="0.6" fill="none"/></g><path d="M213.254 325.322 213.254 328.263" stroke="#000000" stroke-width="0.672222" stroke-linejoin="round" fill="none"/><path d="M0.907237 6.12615 4.16069 6.12615 4.16069 5.42767 1.66611 5.42767 1.66611 3.92699C1.78602 3.96812 1.90595 3.99876 2.02586 4.01889 2.14665 4.03902 2.26744 4.04909 2.38823 4.04909 3.07183 4.04909 3.61319 3.86177 4.01233 3.48715 4.41234 3.11253 4.61234 2.60529 4.61234 1.96546 4.61234 1.30637 4.40709 0.793888 3.99657 0.428016 3.58606 0.0630208 3.0075-0.119477 2.26087-0.119477 2.00354-0.119477 1.74138-0.0975947 1.47442-0.0538303 1.20834-0.0100658 0.933059 0.0555808 0.648589 0.14311L0.648589 0.976823C0.894545 0.842904 1.14882 0.743121 1.4114 0.677474 1.67399 0.611827 1.95145 0.579004 2.2438 0.579004 2.71734 0.579004 3.09196 0.703295 3.36768 0.951877 3.64427 1.20046 3.78256 1.53833 3.78256 1.96546 3.78256 2.39173 3.64427 2.72916 3.36768 2.97773 3.09196 3.22719 2.71734 3.35192 2.2438 3.35192 2.02235 3.35192 1.80135 3.32741 1.58077 3.2784 1.36108 3.22938 1.13656 3.15279 0.907237 3.04863L0.907237 6.12615Z" transform="matrix(1 0 0 -1 210.581 337.588)"/><g><path d="M284.781 325.322 284.781 23.1917" stroke="#B0B0B0" stroke-width="0.672222" stroke-linejoin="round" stroke-dasharray="2.48722 1.07556" stroke-opacity="0.6" fill="none"/></g><path d="M284.781 325.322 284.781 328.263" stroke="#000000" stroke-width="0.672222" stroke-linejoin="round" fill="none"/><path d="M0.68929 6.12615 4.62809 6.12615 4.62809 5.77297 2.40398 0 1.53876 0 3.63158 5.42767 0.68929 5.42767 0.68929 6.12615Z" transform="matrix(1 0 0 -1 282.108 337.588)"/><g><path d="M356.309 325.322 356.309 23.1917" stroke="#B0B0B0" stroke-width="0.672222" stroke-linejoin="round" stroke-dasharray="2.48722 1.07556" stroke-opacity="0.6" fill="none"/></g><path d="M356.309 325.322 356.309 328.263" stroke="#000000" stroke-width="0.672222" stroke-linejoin="round" fill="none"/><path d="M0.922993 0.127355 0.922993 0.882292C1.13131 0.783384 1.34182 0.708109 1.55451 0.656467 1.76809 0.604825 1.97771 0.579004 2.18341 0.579004 2.73047 0.579004 3.14798 0.762815 3.43595 1.13044 3.72479 1.49806 3.88979 2.05693 3.93092 2.80705 3.77249 2.5716 3.57118 2.39085 3.32697 2.26481 3.08365 2.13877 2.8145 2.07575 2.51952 2.07575 1.90681 2.07575 1.42191 2.26087 1.06479 2.63112 0.707671 3.00225 0.529112 3.50947 0.529112 4.15281 0.529112 4.78127 0.715112 5.28544 1.08711 5.66531 1.4591 6.04606 1.95408 6.23644 2.57204 6.23644 3.28102 6.23644 3.82195 5.96466 4.19482 5.4211 4.56858 4.87843 4.75545 4.09022 4.75545 3.05651 4.75545 2.09107 4.52612 1.32038 4.06747 0.744434 3.60969 0.168493 2.99392-0.119477 2.22017-0.119477 2.01185-0.119477 1.80091-0.0989076 1.58734-0.0577691 1.37464-0.0166305 1.15319 0.0450774 0.922993 0.127355ZM2.57204 2.72434C2.94403 2.72434 3.23857 2.85126 3.45564 3.10509 3.67359 3.3598 3.78256 3.70904 3.78256 4.15281 3.78256 4.59308 3.67359 4.941 3.45564 5.19659 3.23857 5.45218 2.94403 5.57997 2.57204 5.57997 2.20004 5.57997 1.9055 5.45218 1.68843 5.19659 1.47137 4.941 1.36283 4.59308 1.36283 4.15281 1.36283 3.70904 1.47137 3.3598 1.68843 3.10509 1.9055 2.85126 2.20004 2.72434 2.57204 2.72434Z" transform="matrix(1 0 0 -1 353.635 337.588)"/><g><path d="M427.836 325.322 427.836 23.1917" stroke="#B0B0B0" stroke-width="0.672222" stroke-linejoin="round" stroke-dasharray="2.48722 1.07556" stroke-opacity="0.6" fill="none"/></g><path d="M427.836 325.322 427.836 328.263" stroke="#000000" stroke-width="0.672222" stroke-linejoin="round" fill="none"/><path d="M1.04247 0.697168 2.3961 0.697168 2.3961 5.37121 0.922993 5.0758 0.922993 5.83074 2.38823 6.12615 3.21669 6.12615 3.21669 0.697168 4.57032 0.697168 4.57032 0 1.04247 0 1.04247 0.697168Z" transform="matrix(1 0 0 -1 422.49 337.588)"/><path d="M1.04247 0.697168 2.3961 0.697168 2.3961 5.37121 0.922993 5.0758 0.922993 5.83074 2.38823 6.12615 3.21669 6.12615 3.21669 0.697168 4.57032 0.697168 4.57032 0 1.04247 0 1.04247 0.697168Z" transform="matrix(1 0 0 -1 427.836 337.588)"/><g><path d="M499.363 325.322 499.363 23.1917" stroke="#B0B0B0" stroke-width="0.672222" stroke-linejoin="round" stroke-dasharray="2.48722 1.07556" stroke-opacity="0.6" fill="none"/></g><path d="M499.363 325.322 499.363 328.263" stroke="#000000" stroke-width="0.672222" stroke-linejoin="round" fill="none"/><path d="M1.04247 0.697168 2.3961 0.697168 2.3961 5.37121 0.922993 5.0758 0.922993 5.83074 2.38823 6.12615 3.21669 6.12615 3.21669 0.697168 4.57032 0.697168 4.57032 0 1.04247 0 1.04247 0.697168Z" transform="matrix(1 0 0 -1 494.017 337.588)"/><path d="M3.40969 3.30334C3.8062 3.21843 4.11561 3.04163 4.33793 2.77292 4.56113 2.50508 4.67273 2.17422 4.67273 1.78034 4.67273 1.17639 4.46486 0.708547 4.04909 0.376812 3.63332 0.0459527 3.0425-0.119477 2.27663-0.119477 2.02017-0.119477 1.75583-0.0940937 1.48362-0.0433268 1.2114 0.00743996 0.930433 0.0835902 0.640712 0.185124L0.640712 0.984701C0.870038 0.850781 1.12125 0.749685 1.39434 0.681413 1.66831 0.61314 1.95453 0.579004 2.25299 0.579004 2.77204 0.579004 3.16768 0.681413 3.43989 0.88623 3.7121 1.09105 3.84821 1.38908 3.84821 1.78034 3.84821 2.14183 3.72173 2.42411 3.46877 2.62718 3.21581 2.83112 2.86394 2.93309 2.41317 2.93309L1.69894 2.93309 1.69894 3.61451 2.446 3.61451C2.85301 3.61451 3.1646 3.69591 3.38081 3.85871 3.59701 4.02152 3.7051 4.2561 3.7051 4.56245 3.7051 4.87667 3.5935 5.11782 3.3703 5.28587 3.14798 5.45481 2.82894 5.53927 2.41317 5.53927 2.1856 5.53927 1.94183 5.51432 1.68187 5.46443 1.42191 5.41542 1.13613 5.33927 0.824523 5.23598L0.824523 5.97385C1.13963 6.06138 1.4346 6.12703 1.70944 6.17079 1.98428 6.21455 2.24337 6.23644 2.4867 6.23644 3.11603 6.23644 3.61363 6.09333 3.9795 5.80711 4.34624 5.52177 4.52962 5.13576 4.52962 4.6491 4.52962 4.30948 4.43247 4.02283 4.23815 3.78913 4.04384 3.55543 3.76769 3.3935 3.40969 3.30334Z" transform="matrix(1 0 0 -1 499.363 337.588)"/><g><path d="M570.891 325.322 570.891 23.1917" stroke="#B0B0B0" stroke-width="0.672222" stroke-linejoin="round" stroke-dasharray="2.48722 1.07556" stroke-opacity="0.6" fill="none"/></g><path d="M570.891 325.322 570.891 328.263" stroke="#000000" stroke-width="0.672222" stroke-linejoin="round" fill="none"/><path d="M1.04247 0.697168 2.3961 0.697168 2.3961 5.37121 0.922993 5.0758 0.922993 5.83074 2.38823 6.12615 3.21669 6.12615 3.21669 0.697168 4.57032 0.697168 4.57032 0 1.04247 0 1.04247 0.697168Z" transform="matrix(1 0 0 -1 565.544 337.588)"/><path d="M0.907237 6.12615 4.16069 6.12615 4.16069 5.42767 1.66611 5.42767 1.66611 3.92699C1.78602 3.96812 1.90595 3.99876 2.02586 4.01889 2.14665 4.03902 2.26744 4.04909 2.38823 4.04909 3.07183 4.04909 3.61319 3.86177 4.01233 3.48715 4.41234 3.11253 4.61234 2.60529 4.61234 1.96546 4.61234 1.30637 4.40709 0.793888 3.99657 0.428016 3.58606 0.0630208 3.0075-0.119477 2.26087-0.119477 2.00354-0.119477 1.74138-0.0975947 1.47442-0.0538303 1.20834-0.0100658 0.933059 0.0555808 0.648589 0.14311L0.648589 0.976823C0.894545 0.842904 1.14882 0.743121 1.4114 0.677474 1.67399 0.611827 1.95145 0.579004 2.2438 0.579004 2.71734 0.579004 3.09196 0.703295 3.36768 0.951877 3.64427 1.20046 3.78256 1.53833 3.78256 1.96546 3.78256 2.39173 3.64427 2.72916 3.36768 2.97773 3.09196 3.22719 2.71734 3.35192 2.2438 3.35192 2.02235 3.35192 1.80135 3.32741 1.58077 3.2784 1.36108 3.22938 1.13656 3.15279 0.907237 3.04863L0.907237 6.12615Z" transform="matrix(1 0 0 -1 570.89 337.588)"/><path d="M1.84651 7.08039 1.84651 5.51432 3.71193 5.51432 3.71193 4.81007 1.84651 4.81007 1.84651 1.81658C1.84651 1.36703 1.90796 1.07818 2.03085 0.950039 2.15374 0.821897 2.40424 0.757826 2.78237 0.757826L3.71193 0.757826 3.71193 0 2.78237 0C2.08284 0 1.60021 0.130243 1.33447 0.390729 1.06873 0.652266 0.935859 1.12755 0.935859 1.81658L0.935859 4.81007 0.27099 4.81007 0.27099 5.51432 0.935859 5.51432 0.935859 7.08039 1.84651 7.08039Z" transform="matrix(1 0 0 -1 300.423 350.359)"/><path d="M0.950039 5.51432 1.85596 5.51432 1.85596 0 0.950039 0 0.950039 5.51432ZM0.950039 7.66176 1.85596 7.66176 1.85596 6.5132 0.950039 6.5132 0.950039 7.66176Z" transform="matrix(1 0 0 -1 304.376 350.359)"/><path d="M5.24333 4.45557C5.47021 4.86311 5.7412 5.1635 6.0563 5.35677 6.37141 5.55004 6.74217 5.64667 7.16862 5.64667 7.74317 5.64667 8.18641 5.44552 8.49836 5.04324 8.81031 4.642 8.96629 4.07063 8.96629 3.32908L8.96629 0 8.05564 0 8.05564 3.29914C8.05564 3.82746 7.96163 4.21924 7.77362 4.47448 7.58665 4.73077 7.30148 4.85891 6.91811 4.85891 6.44861 4.85891 6.0773 4.70293 5.80422 4.39098 5.53217 4.08008 5.39616 3.65521 5.39616 3.11638L5.39616 0 4.48551 0 4.48551 3.29914C4.48551 3.83061 4.39203 4.22345 4.20507 4.47763 4.0181 4.73181 3.72926 4.85891 3.33853 4.85891 2.87533 4.85891 2.50717 4.70241 2.23409 4.3894 1.96204 4.07639 1.82603 3.65206 1.82603 3.11638L1.82603 0 0.915378 0 0.915378 5.51432 1.82603 5.51432 1.82603 4.65724C2.03294 4.99546 2.28083 5.24491 2.56967 5.40561 2.85851 5.56632 3.20146 5.64667 3.59849 5.64667 3.99973 5.64667 4.34056 5.54478 4.621 5.34102 4.90145 5.13829 5.10889 4.84315 5.24333 4.45557Z" transform="matrix(1 0 0 -1 307.178 350.359)"/><path d="M5.66715 2.98404 5.66715 2.54132 1.50147 2.54132C1.54138 1.91741 1.7294 1.44213 2.06551 1.11547 2.40161 0.788811 2.87008 0.625482 3.47087 0.625482 3.81854 0.625482 4.1557 0.668021 4.48236 0.753099 4.80901 0.838177 5.13357 0.966319 5.45603 1.13753L5.45603 0.280443C5.13042 0.142847 4.79694 0.0378125 4.45557-0.0346615 4.1142-0.107135 3.76813-0.143372 3.4173-0.143372 2.53711-0.143372 1.84021 0.112387 1.32659 0.623906 0.812969 1.13648 0.556159 1.8297 0.556159 2.70359 0.556159 3.60585 0.79984 4.32165 1.2872 4.85103 1.77456 5.38146 2.43208 5.64667 3.25975 5.64667 4.0013 5.64667 4.58792 5.40771 5.01961 4.9298 5.4513 4.45294 5.66715 3.80436 5.66715 2.98404ZM4.76122 3.2503C4.75492 3.74501 4.61628 4.13995 4.34529 4.43509 4.0743 4.73129 3.7156 4.87939 3.26921 4.87939 2.76398 4.87939 2.35961 4.73654 2.05605 4.45085 1.7525 4.16516 1.57762 3.76286 1.53141 3.244L4.76122 3.2503Z" transform="matrix(1 0 0 -1 317 350.359)"/><path d="M0.866536 7.66176 2.9541 7.66176 2.9541 6.9575 1.77246 6.9575 1.77246-0.625482 2.9541-0.625482 2.9541-1.32974 0.866536-1.32974 0.866536 7.66176Z" transform="matrix(1 0 0 -1 326.409 350.359)"/><path d="M5.5348 3.32908 5.5348 0 4.62888 0 4.62888 3.29914C4.62888 3.82116 4.52699 4.21137 4.32323 4.46975 4.11947 4.72919 3.81434 4.85891 3.40785 4.85891 2.91838 4.85891 2.53238 4.70293 2.24984 4.39098 1.96731 4.08008 1.82603 3.65521 1.82603 3.11638L1.82603 0 0.915378 0 0.915378 7.66176 1.82603 7.66176 1.82603 4.65724C2.04345 4.98915 2.29868 5.23703 2.59173 5.40089 2.88583 5.56474 3.22509 5.64667 3.60952 5.64667 4.24288 5.64667 4.72184 5.45078 5.04639 5.059 5.37201 4.66721 5.5348 4.09057 5.5348 3.32908Z" transform="matrix(1 0 0 -1 330.343 350.359)"/><path d="M3.06754 7.66176 3.06754-1.32974 0.979974-1.32974 0.979974-0.625482 2.15689-0.625482 2.15689 6.9575 0.979974 6.9575 0.979974 7.66176 3.06754 7.66176Z" transform="matrix(1 0 0 -1 336.734 350.359)"/><g><path d="M45.1649 290.776 595.925 290.776" stroke="#B0B0B0" stroke-width="0.672222" stroke-linejoin="round" stroke-dasharray="2.48722 1.07556" stroke-opacity="0.6" fill="none"/></g><path d="M45.1649 290.776 42.224 290.776" stroke="#000000" stroke-width="0.672222" stroke-linejoin="round" fill="none"/><path d="M0.907237 6.12615 4.16069 6.12615 4.16069 5.42767 1.66611 5.42767 1.66611 3.92699C1.78602 3.96812 1.90595 3.99876 2.02586 4.01889 2.14665 4.03902 2.26744 4.04909 2.38823 4.04909 3.07183 4.04909 3.61319 3.86177 4.01233 3.48715 4.41234 3.11253 4.61234 2.60529 4.61234 1.96546 4.61234 1.30637 4.40709 0.793888 3.99657 0.428016 3.58606 0.0630208 3.0075-0.119477 2.26087-0.119477 2.00354-0.119477 1.74138-0.0975947 1.47442-0.0538303 1.20834-0.0100658 0.933059 0.0555808 0.648589 0.14311L0.648589 0.976823C0.894545 0.842904 1.14882 0.743121 1.4114 0.677474 1.67399 0.611827 1.95145 0.579004 2.2438 0.579004 2.71734 0.579004 3.09196 0.703295 3.36768 0.951877 3.64427 1.20046 3.78256 1.53833 3.78256 1.96546 3.78256 2.39173 3.64427 2.72916 3.36768 2.97773 3.09196 3.22719 2.71734 3.35192 2.2438 3.35192 2.02235 3.35192 1.80135 3.32741 1.58077 3.2784 1.36108 3.22938 1.13656 3.15279 0.907237 3.04863L0.907237 6.12615Z" transform="matrix(1 0 0 -1 28.5905 293.969)"/><path d="M2.67051 5.57997C2.24424 5.57997 1.92345 5.3699 1.70813 4.94976 1.49369 4.5305 1.38646 3.89941 1.38646 3.05651 1.38646 2.21711 1.49369 1.58734 1.70813 1.1672 1.92345 0.747059 2.24424 0.53699 2.67051 0.53699 3.10027 0.53699 3.42239 0.747059 3.63683 1.1672 3.85215 1.58734 3.95981 2.21711 3.95981 3.05651 3.95981 3.89941 3.85215 4.5305 3.63683 4.94976 3.42239 5.3699 3.10027 5.57997 2.67051 5.57997ZM2.67051 6.23644C3.35761 6.23644 3.88235 5.96466 4.24472 5.4211 4.60709 4.87843 4.78827 4.09022 4.78827 3.05651 4.78827 2.02542 4.60709 1.2381 4.24472 0.694542 3.88235 0.151863 3.35761-0.119477 2.67051-0.119477 1.98428-0.119477 1.45998 0.151863 1.09761 0.694542 0.735243 1.2381 0.554058 2.02542 0.554058 3.05651 0.554058 4.09022 0.735243 4.87843 1.09761 5.4211 1.45998 5.96466 1.98428 6.23644 2.67051 6.23644Z" transform="matrix(1 0 0 -1 33.9366 293.969)"/><g><path d="M45.1649 248.389 595.925 248.389" stroke="#B0B0B0" stroke-width="0.672222" stroke-linejoin="round" stroke-dasharray="2.48722 1.07556" stroke-opacity="0.6" fill="none"/></g><path d="M45.1649 248.389 42.224 248.389" stroke="#000000" stroke-width="0.672222" stroke-linejoin="round" fill="none"/><path d="M1.04247 0.697168 2.3961 0.697168 2.3961 5.37121 0.922993 5.0758 0.922993 5.83074 2.38823 6.12615 3.21669 6.12615 3.21669 0.697168 4.57032 0.697168 4.57032 0 1.04247 0 1.04247 0.697168Z" transform="matrix(1 0 0 -1 23.2442 251.581)"/><path d="M2.67051 5.57997C2.24424 5.57997 1.92345 5.3699 1.70813 4.94976 1.49369 4.5305 1.38646 3.89941 1.38646 3.05651 1.38646 2.21711 1.49369 1.58734 1.70813 1.1672 1.92345 0.747059 2.24424 0.53699 2.67051 0.53699 3.10027 0.53699 3.42239 0.747059 3.63683 1.1672 3.85215 1.58734 3.95981 2.21711 3.95981 3.05651 3.95981 3.89941 3.85215 4.5305 3.63683 4.94976 3.42239 5.3699 3.10027 5.57997 2.67051 5.57997ZM2.67051 6.23644C3.35761 6.23644 3.88235 5.96466 4.24472 5.4211 4.60709 4.87843 4.78827 4.09022 4.78827 3.05651 4.78827 2.02542 4.60709 1.2381 4.24472 0.694542 3.88235 0.151863 3.35761-0.119477 2.67051-0.119477 1.98428-0.119477 1.45998 0.151863 1.09761 0.694542 0.735243 1.2381 0.554058 2.02542 0.554058 3.05651 0.554058 4.09022 0.735243 4.87843 1.09761 5.4211 1.45998 5.96466 1.98428 6.23644 2.67051 6.23644Z" transform="matrix(1 0 0 -1 28.5903 251.581)"/><path d="M2.67051 5.57997C2.24424 5.57997 1.92345 5.3699 1.70813 4.94976 1.49369 4.5305 1.38646 3.89941 1.38646 3.05651 1.38646 2.21711 1.49369 1.58734 1.70813 1.1672 1.92345 0.747059 2.24424 0.53699 2.67051 0.53699 3.10027 0.53699 3.42239 0.747059 3.63683 1.1672 3.85215 1.58734 3.95981 2.21711 3.95981 3.05651 3.95981 3.89941 3.85215 4.5305 3.63683 4.94976 3.42239 5.3699 3.10027 5.57997 2.67051 5.57997ZM2.67051 6.23644C3.35761 6.23644 3.88235 5.96466 4.24472 5.4211 4.60709 4.87843 4.78827 4.09022 4.78827 3.05651 4.78827 2.02542 4.60709 1.2381 4.24472 0.694542 3.88235 0.151863 3.35761-0.119477 2.67051-0.119477 1.98428-0.119477 1.45998 0.151863 1.09761 0.694542 0.735243 1.2381 0.554058 2.02542 0.554058 3.05651 0.554058 4.09022 0.735243 4.87843 1.09761 5.4211 1.45998 5.96466 1.98428 6.23644 2.67051 6.23644Z" transform="matrix(1 0 0 -1 33.9364 251.581)"/><g><path d="M45.1649 206.001 595.925 206.001" stroke="#B0B0B0" stroke-width="0.672222" stroke-linejoin="round" stroke-dasharray="2.48722 1.07556" stroke-opacity="0.6" fill="none"/></g><path d="M45.1649 206.001 42.224 206.001" stroke="#000000" stroke-width="0.672222" stroke-linejoin="round" fill="none"/><path d="M1.04247 0.697168 2.3961 0.697168 2.3961 5.37121 0.922993 5.0758 0.922993 5.83074 2.38823 6.12615 3.21669 6.12615 3.21669 0.697168 4.57032 0.697168 4.57032 0 1.04247 0 1.04247 0.697168Z" transform="matrix(1 0 0 -1 23.2442 209.193)"/><path d="M0.907237 6.12615 4.16069 6.12615 4.16069 5.42767 1.66611 5.42767 1.66611 3.92699C1.78602 3.96812 1.90595 3.99876 2.02586 4.01889 2.14665 4.03902 2.26744 4.04909 2.38823 4.04909 3.07183 4.04909 3.61319 3.86177 4.01233 3.48715 4.41234 3.11253 4.61234 2.60529 4.61234 1.96546 4.61234 1.30637 4.40709 0.793888 3.99657 0.428016 3.58606 0.0630208 3.0075-0.119477 2.26087-0.119477 2.00354-0.119477 1.74138-0.0975947 1.47442-0.0538303 1.20834-0.0100658 0.933059 0.0555808 0.648589 0.14311L0.648589 0.976823C0.894545 0.842904 1.14882 0.743121 1.4114 0.677474 1.67399 0.611827 1.95145 0.579004 2.2438 0.579004 2.71734 0.579004 3.09196 0.703295 3.36768 0.951877 3.64427 1.20046 3.78256 1.53833 3.78256 1.96546 3.78256 2.39173 3.64427 2.72916 3.36768 2.97773 3.09196 3.22719 2.71734 3.35192 2.2438 3.35192 2.02235 3.35192 1.80135 3.32741 1.58077 3.2784 1.36108 3.22938 1.13656 3.15279 0.907237 3.04863L0.907237 6.12615Z" transform="matrix(1 0 0 -1 28.5903 209.193)"/><path d="M2.67051 5.57997C2.24424 5.57997 1.92345 5.3699 1.70813 4.94976 1.49369 4.5305 1.38646 3.89941 1.38646 3.05651 1.38646 2.21711 1.49369 1.58734 1.70813 1.1672 1.92345 0.747059 2.24424 0.53699 2.67051 0.53699 3.10027 0.53699 3.42239 0.747059 3.63683 1.1672 3.85215 1.58734 3.95981 2.21711 3.95981 3.05651 3.95981 3.89941 3.85215 4.5305 3.63683 4.94976 3.42239 5.3699 3.10027 5.57997 2.67051 5.57997ZM2.67051 6.23644C3.35761 6.23644 3.88235 5.96466 4.24472 5.4211 4.60709 4.87843 4.78827 4.09022 4.78827 3.05651 4.78827 2.02542 4.60709 1.2381 4.24472 0.694542 3.88235 0.151863 3.35761-0.119477 2.67051-0.119477 1.98428-0.119477 1.45998 0.151863 1.09761 0.694542 0.735243 1.2381 0.554058 2.02542 0.554058 3.05651 0.554058 4.09022 0.735243 4.87843 1.09761 5.4211 1.45998 5.96466 1.98428 6.23644 2.67051 6.23644Z" transform="matrix(1 0 0 -1 33.9364 209.193)"/><g><path d="M45.1649 163.613 595.925 163.613" stroke="#B0B0B0" stroke-width="0.672222" stroke-linejoin="round" stroke-dasharray="2.48722 1.07556" stroke-opacity="0.6" fill="none"/></g><path d="M45.1649 163.613 42.224 163.613" stroke="#000000" stroke-width="0.672222" stroke-linejoin="round" fill="none"/><path d="M1.61228 0.697168 4.50468 0.697168 4.50468 0 0.615766 0 0.615766 0.697168C0.929994 1.02278 1.35845 1.45955 1.90113 2.00748 2.44468 2.55628 2.78605 2.91034 2.92522 3.06964 3.19043 3.36724 3.37555 3.61933 3.48059 3.82589 3.5865 4.03245 3.63945 4.23553 3.63945 4.43509 3.63945 4.7607 3.52523 5.02591 3.29678 5.23073 3.06833 5.43643 2.77072 5.53927 2.40398 5.53927 2.14402 5.53927 1.86962 5.4942 1.58077 5.40404 1.2928 5.31388 0.984701 5.1769 0.656467 4.99309L0.656467 5.83074C0.989952 5.96466 1.30155 6.06575 1.59128 6.13403 1.88187 6.2023 2.14753 6.23644 2.38823 6.23644 3.02281 6.23644 3.52873 6.07757 3.90598 5.75984 4.28322 5.44299 4.47185 5.01935 4.47185 4.48892 4.47185 4.23684 4.42459 3.99788 4.33006 3.77206 4.2364 3.54711 4.06484 3.28146 3.81539 2.97511 3.74711 2.89545 3.5296 2.66614 3.16286 2.28713 2.79698 1.90813 2.28013 1.37815 1.61228 0.697168Z" transform="matrix(1 0 0 -1 23.2442 166.806)"/><path d="M2.67051 5.57997C2.24424 5.57997 1.92345 5.3699 1.70813 4.94976 1.49369 4.5305 1.38646 3.89941 1.38646 3.05651 1.38646 2.21711 1.49369 1.58734 1.70813 1.1672 1.92345 0.747059 2.24424 0.53699 2.67051 0.53699 3.10027 0.53699 3.42239 0.747059 3.63683 1.1672 3.85215 1.58734 3.95981 2.21711 3.95981 3.05651 3.95981 3.89941 3.85215 4.5305 3.63683 4.94976 3.42239 5.3699 3.10027 5.57997 2.67051 5.57997ZM2.67051 6.23644C3.35761 6.23644 3.88235 5.96466 4.24472 5.4211 4.60709 4.87843 4.78827 4.09022 4.78827 3.05651 4.78827 2.02542 4.60709 1.2381 4.24472 0.694542 3.88235 0.151863 3.35761-0.119477 2.67051-0.119477 1.98428-0.119477 1.45998 0.151863 1.09761 0.694542 0.735243 1.2381 0.554058 2.02542 0.554058 3.05651 0.554058 4.09022 0.735243 4.87843 1.09761 5.4211 1.45998 5.96466 1.98428 6.23644 2.67051 6.23644Z" transform="matrix(1 0 0 -1 28.5903 166.806)"/><path d="M2.67051 5.57997C2.24424 5.57997 1.92345 5.3699 1.70813 4.94976 1.49369 4.5305 1.38646 3.89941 1.38646 3.05651 1.38646 2.21711 1.49369 1.58734 1.70813 1.1672 1.92345 0.747059 2.24424 0.53699 2.67051 0.53699 3.10027 0.53699 3.42239 0.747059 3.63683 1.1672 3.85215 1.58734 3.95981 2.21711 3.95981 3.05651 3.95981 3.89941 3.85215 4.5305 3.63683 4.94976 3.42239 5.3699 3.10027 5.57997 2.67051 5.57997ZM2.67051 6.23644C3.35761 6.23644 3.88235 5.96466 4.24472 5.4211 4.60709 4.87843 4.78827 4.09022 4.78827 3.05651 4.78827 2.02542 4.60709 1.2381 4.24472 0.694542 3.88235 0.151863 3.35761-0.119477 2.67051-0.119477 1.98428-0.119477 1.45998 0.151863 1.09761 0.694542 0.735243 1.2381 0.554058 2.02542 0.554058 3.05651 0.554058 4.09022 0.735243 4.87843 1.09761 5.4211 1.45998 5.96466 1.98428 6.23644 2.67051 6.23644Z" transform="matrix(1 0 0 -1 33.9364 166.806)"/><g><path d="M45.1649 121.225 595.925 121.225" stroke="#B0B0B0" stroke-width="0.672222" stroke-linejoin="round" stroke-dasharray="2.48722 1.07556" stroke-opacity="0.6" fill="none"/></g><path d="M45.1649 121.225 42.224 121.225" stroke="#000000" stroke-width="0.672222" stroke-linejoin="round" fill="none"/><path d="M1.61228 0.697168 4.50468 0.697168 4.50468 0 0.615766 0 0.615766 0.697168C0.929994 1.02278 1.35845 1.45955 1.90113 2.00748 2.44468 2.55628 2.78605 2.91034 2.92522 3.06964 3.19043 3.36724 3.37555 3.61933 3.48059 3.82589 3.5865 4.03245 3.63945 4.23553 3.63945 4.43509 3.63945 4.7607 3.52523 5.02591 3.29678 5.23073 3.06833 5.43643 2.77072 5.53927 2.40398 5.53927 2.14402 5.53927 1.86962 5.4942 1.58077 5.40404 1.2928 5.31388 0.984701 5.1769 0.656467 4.99309L0.656467 5.83074C0.989952 5.96466 1.30155 6.06575 1.59128 6.13403 1.88187 6.2023 2.14753 6.23644 2.38823 6.23644 3.02281 6.23644 3.52873 6.07757 3.90598 5.75984 4.28322 5.44299 4.47185 5.01935 4.47185 4.48892 4.47185 4.23684 4.42459 3.99788 4.33006 3.77206 4.2364 3.54711 4.06484 3.28146 3.81539 2.97511 3.74711 2.89545 3.5296 2.66614 3.16286 2.28713 2.79698 1.90813 2.28013 1.37815 1.61228 0.697168Z" transform="matrix(1 0 0 -1 23.2442 124.418)"/><path d="M0.907237 6.12615 4.16069 6.12615 4.16069 5.42767 1.66611 5.42767 1.66611 3.92699C1.78602 3.96812 1.90595 3.99876 2.02586 4.01889 2.14665 4.03902 2.26744 4.04909 2.38823 4.04909 3.07183 4.04909 3.61319 3.86177 4.01233 3.48715 4.41234 3.11253 4.61234 2.60529 4.61234 1.96546 4.61234 1.30637 4.40709 0.793888 3.99657 0.428016 3.58606 0.0630208 3.0075-0.119477 2.26087-0.119477 2.00354-0.119477 1.74138-0.0975947 1.47442-0.0538303 1.20834-0.0100658 0.933059 0.0555808 0.648589 0.14311L0.648589 0.976823C0.894545 0.842904 1.14882 0.743121 1.4114 0.677474 1.67399 0.611827 1.95145 0.579004 2.2438 0.579004 2.71734 0.579004 3.09196 0.703295 3.36768 0.951877 3.64427 1.20046 3.78256 1.53833 3.78256 1.96546 3.78256 2.39173 3.64427 2.72916 3.36768 2.97773 3.09196 3.22719 2.71734 3.35192 2.2438 3.35192 2.02235 3.35192 1.80135 3.32741 1.58077 3.2784 1.36108 3.22938 1.13656 3.15279 0.907237 3.04863L0.907237 6.12615Z" transform="matrix(1 0 0 -1 28.5903 124.418)"/><path d="M2.67051 5.57997C2.24424 5.57997 1.92345 5.3699 1.70813 4.94976 1.49369 4.5305 1.38646 3.89941 1.38646 3.05651 1.38646 2.21711 1.49369 1.58734 1.70813 1.1672 1.92345 0.747059 2.24424 0.53699 2.67051 0.53699 3.10027 0.53699 3.42239 0.747059 3.63683 1.1672 3.85215 1.58734 3.95981 2.21711 3.95981 3.05651 3.95981 3.89941 3.85215 4.5305 3.63683 4.94976 3.42239 5.3699 3.10027 5.57997 2.67051 5.57997ZM2.67051 6.23644C3.35761 6.23644 3.88235 5.96466 4.24472 5.4211 4.60709 4.87843 4.78827 4.09022 4.78827 3.05651 4.78827 2.02542 4.60709 1.2381 4.24472 0.694542 3.88235 0.151863 3.35761-0.119477 2.67051-0.119477 1.98428-0.119477 1.45998 0.151863 1.09761 0.694542 0.735243 1.2381 0.554058 2.02542 0.554058 3.05651 0.554058 4.09022 0.735243 4.87843 1.09761 5.4211 1.45998 5.96466 1.98428 6.23644 2.67051 6.23644Z" transform="matrix(1 0 0 -1 33.9364 124.418)"/><g><path d="M45.1649 78.8378 595.925 78.8378" stroke="#B0B0B0" stroke-width="0.672222" stroke-linejoin="round" stroke-dasharray="2.48722 1.07556" stroke-opacity="0.6" fill="none"/></g><path d="M45.1649 78.8378 42.224 78.8378" stroke="#000000" stroke-width="0.672222" stroke-linejoin="round" fill="none"/><path d="M3.40969 3.30334C3.8062 3.21843 4.11561 3.04163 4.33793 2.77292 4.56113 2.50508 4.67273 2.17422 4.67273 1.78034 4.67273 1.17639 4.46486 0.708547 4.04909 0.376812 3.63332 0.0459527 3.0425-0.119477 2.27663-0.119477 2.02017-0.119477 1.75583-0.0940937 1.48362-0.0433268 1.2114 0.00743996 0.930433 0.0835902 0.640712 0.185124L0.640712 0.984701C0.870038 0.850781 1.12125 0.749685 1.39434 0.681413 1.66831 0.61314 1.95453 0.579004 2.25299 0.579004 2.77204 0.579004 3.16768 0.681413 3.43989 0.88623 3.7121 1.09105 3.84821 1.38908 3.84821 1.78034 3.84821 2.14183 3.72173 2.42411 3.46877 2.62718 3.21581 2.83112 2.86394 2.93309 2.41317 2.93309L1.69894 2.93309 1.69894 3.61451 2.446 3.61451C2.85301 3.61451 3.1646 3.69591 3.38081 3.85871 3.59701 4.02152 3.7051 4.2561 3.7051 4.56245 3.7051 4.87667 3.5935 5.11782 3.3703 5.28587 3.14798 5.45481 2.82894 5.53927 2.41317 5.53927 2.1856 5.53927 1.94183 5.51432 1.68187 5.46443 1.42191 5.41542 1.13613 5.33927 0.824523 5.23598L0.824523 5.97385C1.13963 6.06138 1.4346 6.12703 1.70944 6.17079 1.98428 6.21455 2.24337 6.23644 2.4867 6.23644 3.11603 6.23644 3.61363 6.09333 3.9795 5.80711 4.34624 5.52177 4.52962 5.13576 4.52962 4.6491 4.52962 4.30948 4.43247 4.02283 4.23815 3.78913 4.04384 3.55543 3.76769 3.3935 3.40969 3.30334Z" transform="matrix(1 0 0 -1 23.2442 82.0303)"/><path d="M2.67051 5.57997C2.24424 5.57997 1.92345 5.3699 1.70813 4.94976 1.49369 4.5305 1.38646 3.89941 1.38646 3.05651 1.38646 2.21711 1.49369 1.58734 1.70813 1.1672 1.92345 0.747059 2.24424 0.53699 2.67051 0.53699 3.10027 0.53699 3.42239 0.747059 3.63683 1.1672 3.85215 1.58734 3.95981 2.21711 3.95981 3.05651 3.95981 3.89941 3.85215 4.5305 3.63683 4.94976 3.42239 5.3699 3.10027 5.57997 2.67051 5.57997ZM2.67051 6.23644C3.35761 6.23644 3.88235 5.96466 4.24472 5.4211 4.60709 4.87843 4.78827 4.09022 4.78827 3.05651 4.78827 2.02542 4.60709 1.2381 4.24472 0.694542 3.88235 0.151863 3.35761-0.119477 2.67051-0.119477 1.98428-0.119477 1.45998 0.151863 1.09761 0.694542 0.735243 1.2381 0.554058 2.02542 0.554058 3.05651 0.554058 4.09022 0.735243 4.87843 1.09761 5.4211 1.45998 5.96466 1.98428 6.23644 2.67051 6.23644Z" transform="matrix(1 0 0 -1 28.5903 82.0303)"/><path d="M2.67051 5.57997C2.24424 5.57997 1.92345 5.3699 1.70813 4.94976 1.49369 4.5305 1.38646 3.89941 1.38646 3.05651 1.38646 2.21711 1.49369 1.58734 1.70813 1.1672 1.92345 0.747059 2.24424 0.53699 2.67051 0.53699 3.10027 0.53699 3.42239 0.747059 3.63683 1.1672 3.85215 1.58734 3.95981 2.21711 3.95981 3.05651 3.95981 3.89941 3.85215 4.5305 3.63683 4.94976 3.42239 5.3699 3.10027 5.57997 2.67051 5.57997ZM2.67051 6.23644C3.35761 6.23644 3.88235 5.96466 4.24472 5.4211 4.60709 4.87843 4.78827 4.09022 4.78827 3.05651 4.78827 2.02542 4.60709 1.2381 4.24472 0.694542 3.88235 0.151863 3.35761-0.119477 2.67051-0.119477 1.98428-0.119477 1.45998 0.151863 1.09761 0.694542 0.735243 1.2381 0.554058 2.02542 0.554058 3.05651 0.554058 4.09022 0.735243 4.87843 1.09761 5.4211 1.45998 5.96466 1.98428 6.23644 2.67051 6.23644Z" transform="matrix(1 0 0 -1 33.9364 82.0303)"/><g><path d="M45.1649 36.4502 595.925 36.4502" stroke="#B0B0B0" stroke-width="0.672222" stroke-linejoin="round" stroke-dasharray="2.48722 1.07556" stroke-opacity="0.6" fill="none"/></g><path d="M45.1649 36.4502 42.224 36.4502" stroke="#000000" stroke-width="0.672222" stroke-linejoin="round" fill="none"/><path d="M3.40969 3.30334C3.8062 3.21843 4.11561 3.04163 4.33793 2.77292 4.56113 2.50508 4.67273 2.17422 4.67273 1.78034 4.67273 1.17639 4.46486 0.708547 4.04909 0.376812 3.63332 0.0459527 3.0425-0.119477 2.27663-0.119477 2.02017-0.119477 1.75583-0.0940937 1.48362-0.0433268 1.2114 0.00743996 0.930433 0.0835902 0.640712 0.185124L0.640712 0.984701C0.870038 0.850781 1.12125 0.749685 1.39434 0.681413 1.66831 0.61314 1.95453 0.579004 2.25299 0.579004 2.77204 0.579004 3.16768 0.681413 3.43989 0.88623 3.7121 1.09105 3.84821 1.38908 3.84821 1.78034 3.84821 2.14183 3.72173 2.42411 3.46877 2.62718 3.21581 2.83112 2.86394 2.93309 2.41317 2.93309L1.69894 2.93309 1.69894 3.61451 2.446 3.61451C2.85301 3.61451 3.1646 3.69591 3.38081 3.85871 3.59701 4.02152 3.7051 4.2561 3.7051 4.56245 3.7051 4.87667 3.5935 5.11782 3.3703 5.28587 3.14798 5.45481 2.82894 5.53927 2.41317 5.53927 2.1856 5.53927 1.94183 5.51432 1.68187 5.46443 1.42191 5.41542 1.13613 5.33927 0.824523 5.23598L0.824523 5.97385C1.13963 6.06138 1.4346 6.12703 1.70944 6.17079 1.98428 6.21455 2.24337 6.23644 2.4867 6.23644 3.11603 6.23644 3.61363 6.09333 3.9795 5.80711 4.34624 5.52177 4.52962 5.13576 4.52962 4.6491 4.52962 4.30948 4.43247 4.02283 4.23815 3.78913 4.04384 3.55543 3.76769 3.3935 3.40969 3.30334Z" transform="matrix(1 0 0 -1 23.2442 39.6425)"/><path d="M0.907237 6.12615 4.16069 6.12615 4.16069 5.42767 1.66611 5.42767 1.66611 3.92699C1.78602 3.96812 1.90595 3.99876 2.02586 4.01889 2.14665 4.03902 2.26744 4.04909 2.38823 4.04909 3.07183 4.04909 3.61319 3.86177 4.01233 3.48715 4.41234 3.11253 4.61234 2.60529 4.61234 1.96546 4.61234 1.30637 4.40709 0.793888 3.99657 0.428016 3.58606 0.0630208 3.0075-0.119477 2.26087-0.119477 2.00354-0.119477 1.74138-0.0975947 1.47442-0.0538303 1.20834-0.0100658 0.933059 0.0555808 0.648589 0.14311L0.648589 0.976823C0.894545 0.842904 1.14882 0.743121 1.4114 0.677474 1.67399 0.611827 1.95145 0.579004 2.2438 0.579004 2.71734 0.579004 3.09196 0.703295 3.36768 0.951877 3.64427 1.20046 3.78256 1.53833 3.78256 1.96546 3.78256 2.39173 3.64427 2.72916 3.36768 2.97773 3.09196 3.22719 2.71734 3.35192 2.2438 3.35192 2.02235 3.35192 1.80135 3.32741 1.58077 3.2784 1.36108 3.22938 1.13656 3.15279 0.907237 3.04863L0.907237 6.12615Z" transform="matrix(1 0 0 -1 28.5903 39.6425)"/><path d="M2.67051 5.57997C2.24424 5.57997 1.92345 5.3699 1.70813 4.94976 1.49369 4.5305 1.38646 3.89941 1.38646 3.05651 1.38646 2.21711 1.49369 1.58734 1.70813 1.1672 1.92345 0.747059 2.24424 0.53699 2.67051 0.53699 3.10027 0.53699 3.42239 0.747059 3.63683 1.1672 3.85215 1.58734 3.95981 2.21711 3.95981 3.05651 3.95981 3.89941 3.85215 4.5305 3.63683 4.94976 3.42239 5.3699 3.10027 5.57997 2.67051 5.57997ZM2.67051 6.23644C3.35761 6.23644 3.88235 5.96466 4.24472 5.4211 4.60709 4.87843 4.78827 4.09022 4.78827 3.05651 4.78827 2.02542 4.60709 1.2381 4.24472 0.694542 3.88235 0.151863 3.35761-0.119477 2.67051-0.119477 1.98428-0.119477 1.45998 0.151863 1.09761 0.694542 0.735243 1.2381 0.554058 2.02542 0.554058 3.05651 0.554058 4.09022 0.735243 4.87843 1.09761 5.4211 1.45998 5.96466 1.98428 6.23644 2.67051 6.23644Z" transform="matrix(1 0 0 -1 33.9364 39.6425)"/><path d="M3.08645 4.87939C2.60118 4.87939 2.21728 4.68981 1.93474 4.31063 1.6522 3.93144 1.51092 3.41206 1.51092 2.75243 1.51092 2.09281 1.65115 1.57342 1.93159 1.19424 2.21309 0.815069 2.59803 0.625482 3.08645 0.625482 3.56961 0.625482 3.95193 0.815595 4.23342 1.19582 4.51596 1.5771 4.65724 2.09596 4.65724 2.75243 4.65724 3.40576 4.51596 3.92357 4.23342 4.3059 3.95193 4.68823 3.56961 4.87939 3.08645 4.87939ZM3.08645 5.64667C3.87421 5.64667 4.49287 5.39038 4.94241 4.87781 5.39301 4.36629 5.61831 3.65784 5.61831 2.75243 5.61831 1.85018 5.39301 1.14173 4.94241 0.627057 4.49287 0.113438 3.87421-0.143372 3.08645-0.143372 2.29553-0.143372 1.67583 0.113438 1.22733 0.627057 0.779883 1.14173 0.556159 1.85018 0.556159 2.75243 0.556159 3.65784 0.779883 4.36629 1.22733 4.87781 1.67583 5.39038 2.29553 5.64667 3.08645 5.64667Z" transform="matrix(6.12323e-17 -1 -1 -6.12323e-17 17.7861 205.921)"/><path d="M5.5348 5.51432 3.5402 2.83121 5.63721 0 4.56901 0 2.96355 2.16634 1.35967 0 0.289896 0 2.4326 2.88478 0.472656 5.51432 1.54086 5.51432 3.00294 3.54965 4.46503 5.51432 5.5348 5.51432Z" transform="matrix(6.12323e-17 -1 -1 -6.12323e-17 17.7861 200.067)"/><path d="M3.45669 2.77134C2.7246 2.77134 2.21728 2.68784 1.93474 2.52083 1.6522 2.35383 1.51092 2.06814 1.51092 1.66375 1.51092 1.34234 1.617 1.08711 1.82918 0.898047 2.04136 0.710035 2.32914 0.616029 2.69257 0.616029 3.19568 0.616029 3.59901 0.794062 3.90257 1.15013 4.20612 1.5062 4.35789 1.97937 4.35789 2.56967L4.35789 2.77134 3.45669 2.77134ZM5.26381 3.14632 5.26381 0 4.35789 0 4.35789 0.836602C4.15098 0.502591 3.89311 0.255759 3.58431 0.0961068 3.27551-0.063546 2.8979-0.143372 2.45151-0.143372 1.88747-0.143372 1.43845 0.01523 1.10444 0.332435 0.771481 0.649639 0.605 1.07398 0.605 1.60546 0.605 2.22516 0.812444 2.69257 1.22733 3.00767 1.64327 3.32277 2.26297 3.48033 3.08645 3.48033L4.35789 3.48033 4.35789 3.57013C4.35789 3.98712 4.22082 4.30957 3.94668 4.5375 3.67254 4.76543 3.28759 4.87939 2.79182 4.87939 2.47672 4.87939 2.16949 4.84158 1.87014 4.76595 1.57185 4.69033 1.2851 4.57689 1.00991 4.42564L1.00991 5.26381C1.34077 5.39195 1.66217 5.48754 1.97413 5.55056 2.28608 5.61464 2.58964 5.64667 2.88478 5.64667 3.68305 5.64667 4.27911 5.43975 4.67299 5.02591 5.06687 4.61312 5.26381 3.98659 5.26381 3.14632Z" transform="matrix(6.12323e-17 -1 -1 -6.12323e-17 17.7861 194.1)"/><path d="M0.950039 7.66176 1.85596 7.66176 1.85596 0 0.950039 0 0.950039 7.66176Z" transform="matrix(6.12323e-17 -1 -1 -6.12323e-17 17.7861 187.921)"/><path d="M3.45669 2.77134C2.7246 2.77134 2.21728 2.68784 1.93474 2.52083 1.6522 2.35383 1.51092 2.06814 1.51092 1.66375 1.51092 1.34234 1.617 1.08711 1.82918 0.898047 2.04136 0.710035 2.32914 0.616029 2.69257 0.616029 3.19568 0.616029 3.59901 0.794062 3.90257 1.15013 4.20612 1.5062 4.35789 1.97937 4.35789 2.56967L4.35789 2.77134 3.45669 2.77134ZM5.26381 3.14632 5.26381 0 4.35789 0 4.35789 0.836602C4.15098 0.502591 3.89311 0.255759 3.58431 0.0961068 3.27551-0.063546 2.8979-0.143372 2.45151-0.143372 1.88747-0.143372 1.43845 0.01523 1.10444 0.332435 0.771481 0.649639 0.605 1.07398 0.605 1.60546 0.605 2.22516 0.812444 2.69257 1.22733 3.00767 1.64327 3.32277 2.26297 3.48033 3.08645 3.48033L4.35789 3.48033 4.35789 3.57013C4.35789 3.98712 4.22082 4.30957 3.94668 4.5375 3.67254 4.76543 3.28759 4.87939 2.79182 4.87939 2.47672 4.87939 2.16949 4.84158 1.87014 4.76595 1.57185 4.69033 1.2851 4.57689 1.00991 4.42564L1.00991 5.26381C1.34077 5.39195 1.66217 5.48754 1.97413 5.55056 2.28608 5.61464 2.58964 5.64667 2.88478 5.64667 3.68305 5.64667 4.27911 5.43975 4.67299 5.02591 5.06687 4.61312 5.26381 3.98659 5.26381 3.14632Z" transform="matrix(6.12323e-17 -1 -1 -6.12323e-17 17.7861 185.119)"/><path d="M1.84651 7.08039 1.84651 5.51432 3.71193 5.51432 3.71193 4.81007 1.84651 4.81007 1.84651 1.81658C1.84651 1.36703 1.90796 1.07818 2.03085 0.950039 2.15374 0.821897 2.40424 0.757826 2.78237 0.757826L3.71193 0.757826 3.71193 0 2.78237 0C2.08284 0 1.60021 0.130243 1.33447 0.390729 1.06873 0.652266 0.935859 1.12755 0.935859 1.81658L0.935859 4.81007 0.27099 4.81007 0.27099 5.51432 0.935859 5.51432 0.935859 7.08039 1.84651 7.08039Z" transform="matrix(6.12323e-17 -1 -1 -6.12323e-17 17.7861 178.94)"/><path d="M5.66715 2.98404 5.66715 2.54132 1.50147 2.54132C1.54138 1.91741 1.7294 1.44213 2.06551 1.11547 2.40161 0.788811 2.87008 0.625482 3.47087 0.625482 3.81854 0.625482 4.1557 0.668021 4.48236 0.753099 4.80901 0.838177 5.13357 0.966319 5.45603 1.13753L5.45603 0.280443C5.13042 0.142847 4.79694 0.0378125 4.45557-0.0346615 4.1142-0.107135 3.76813-0.143372 3.4173-0.143372 2.53711-0.143372 1.84021 0.112387 1.32659 0.623906 0.812969 1.13648 0.556159 1.8297 0.556159 2.70359 0.556159 3.60585 0.79984 4.32165 1.2872 4.85103 1.77456 5.38146 2.43208 5.64667 3.25975 5.64667 4.0013 5.64667 4.58792 5.40771 5.01961 4.9298 5.4513 4.45294 5.66715 3.80436 5.66715 2.98404ZM4.76122 3.2503C4.75492 3.74501 4.61628 4.13995 4.34529 4.43509 4.0743 4.73129 3.7156 4.87939 3.26921 4.87939 2.76398 4.87939 2.35961 4.73654 2.05605 4.45085 1.7525 4.16516 1.57762 3.76286 1.53141 3.244L4.76122 3.2503Z" transform="matrix(6.12323e-17 -1 -1 -6.12323e-17 17.7861 174.987)"/><path d="M0.866536 7.66176 2.9541 7.66176 2.9541 6.9575 1.77246 6.9575 1.77246-0.625482 2.9541-0.625482 2.9541-1.32974 0.866536-1.32974 0.866536 7.66176Z" transform="matrix(6.12323e-17 -1 -1 -6.12323e-17 17.7861 165.578)"/><path d="M0.857083-2.09702 0.857083 5.51432 1.76301 5.51432 1.76301 2.08757C1.76301 1.61176 1.87593 1.25201 2.10174 1.00833 2.32862 0.765703 2.66369 0.644388 3.10693 0.644388 3.59219 0.644388 3.95719 0.781983 4.20191 1.05717 4.44664 1.33342 4.56901 1.74725 4.56901 2.29868L4.56901 5.51432 5.47494 5.51432 5.47494 1.26987C5.47494 1.07345 5.50329 0.928506 5.56001 0.835026 5.61779 0.741546 5.70759 0.694805 5.82943 0.694805 5.85884 0.694805 5.89981 0.703733 5.95232 0.721589 6.00483 0.739444 6.0773 0.76833 6.16974 0.808242L6.16974 0.078776C6.0353 0.00315104 5.90768-0.0525173 5.78689-0.0882292 5.66715-0.124991 5.55004-0.143372 5.43555-0.143372 5.20867-0.143372 5.02801-0.0793012 4.89357 0.0488411 4.75913 0.176983 4.66721 0.372348 4.61785 0.634935 4.454 0.375499 4.25285 0.18066 4.01443 0.0504167 3.77704-0.078776 3.49766-0.143372 3.17625-0.143372 2.84118-0.143372 2.55601-0.0793012 2.32074 0.0488411 2.08651 0.176983 1.9006 0.369197 1.76301 0.625482L1.76301-2.09702 0.857083-2.09702Z" transform="matrix(6.12323e-17 -1 -1 -6.12323e-17 17.7861 161.644)"/><path d="M0.989427 7.35138 2.47199 7.35138 4.34686 2.3491 6.23276 7.35138 7.71533 7.35138 7.71533 0 6.7448 0 6.7448 6.45491 4.84945 1.41324 3.85057 1.41324 1.95522 6.45491 1.95522 0 0.989427 0 0.989427 7.35138Z" transform="matrix(6.12323e-17 -1 -1 -6.12323e-17 17.7861 155.229)"/><path d="M3.06754 7.66176 3.06754-1.32974 0.979974-1.32974 0.979974-0.625482 2.15689-0.625482 2.15689 6.9575 0.979974 6.9575 0.979974 7.66176 3.06754 7.66176Z" transform="matrix(6.12323e-17 -1 -1 -6.12323e-17 17.7861 146.529)"/><g><path d="M70.1995 215.767 141.727 289.182 213.254 311.588 284.781 249.236 356.309 288.098 427.836 36.9248 499.363 183.103 570.891 105.008" stroke="#00008B" stroke-width="1.26042" stroke-linecap="square" stroke-linejoin="round" fill="none"/></g><g><path d="M70.1995 218.288C70.868 218.288 71.5093 218.023 71.982 217.55 72.4547 217.077 72.7203 216.436 72.7203 215.767 72.7203 215.099 72.4547 214.458 71.982 213.985 71.5093 213.512 70.868 213.247 70.1995 213.247 69.531 213.247 68.8897 213.512 68.417 213.985 67.9443 214.458 67.6787 215.099 67.6787 215.767 67.6787 216.436 67.9443 217.077 68.417 217.55 68.8897 218.023 69.531 218.288 70.1995 218.288Z" stroke="#00008B" stroke-width="0.840278" stroke-linejoin="round" fill="#00008B"/><path d="M141.727 291.703C142.396 291.703 143.037 291.438 143.51 290.965 143.982 290.492 144.248 289.851 144.248 289.182 144.248 288.514 143.982 287.873 143.51 287.4 143.037 286.927 142.396 286.662 141.727 286.662 141.059 286.662 140.417 286.927 139.945 287.4 139.472 287.873 139.206 288.514 139.206 289.182 139.206 289.851 139.472 290.492 139.945 290.965 140.417 291.438 141.059 291.703 141.727 291.703Z" stroke="#00008B" stroke-width="0.840278" stroke-linejoin="round" fill="#00008B"/><path d="M213.254 314.109C213.923 314.109 214.564 313.844 215.037 313.371 215.509 312.898 215.775 312.257 215.775 311.588 215.775 310.92 215.509 310.279 215.037 309.806 214.564 309.333 213.923 309.068 213.254 309.068 212.586 309.068 211.944 309.333 211.472 309.806 210.999 310.279 210.733 310.92 210.733 311.588 210.733 312.257 210.999 312.898 211.472 313.371 211.944 313.844 212.586 314.109 213.254 314.109Z" stroke="#00008B" stroke-width="0.840278" stroke-linejoin="round" fill="#00008B"/><path d="M284.781 251.757C285.45 251.757 286.091 251.492 286.564 251.019 287.036 250.546 287.302 249.905 287.302 249.236 287.302 248.568 287.036 247.927 286.564 247.454 286.091 246.981 285.45 246.716 284.781 246.716 284.113 246.716 283.471 246.981 282.999 247.454 282.526 247.927 282.26 248.568 282.26 249.236 282.26 249.905 282.526 250.546 282.999 251.019 283.471 251.492 284.113 251.757 284.781 251.757Z" stroke="#00008B" stroke-width="0.840278" stroke-linejoin="round" fill="#00008B"/><path d="M356.309 290.618C356.977 290.618 357.619 290.353 358.091 289.88 358.564 289.407 358.83 288.766 358.83 288.098 358.83 287.429 358.564 286.788 358.091 286.315 357.619 285.842 356.977 285.577 356.309 285.577 355.64 285.577 354.999 285.842 354.526 286.315 354.054 286.788 353.788 287.429 353.788 288.098 353.788 288.766 354.054 289.407 354.526 289.88 354.999 290.353 355.64 290.618 356.309 290.618Z" stroke="#00008B" stroke-width="0.840278" stroke-linejoin="round" fill="#00008B"/><path d="M427.836 39.4457C428.504 39.4457 429.146 39.1801 429.618 38.7073 430.091 38.2346 430.357 37.5934 430.357 36.9248 430.357 36.2563 430.091 35.6151 429.618 35.1423 429.146 34.6696 428.504 34.404 427.836 34.404 427.167 34.404 426.526 34.6696 426.053 35.1423 425.581 35.6151 425.315 36.2563 425.315 36.9248 425.315 37.5934 425.581 38.2346 426.053 38.7073 426.526 39.1801 427.167 39.4457 427.836 39.4457Z" stroke="#00008B" stroke-width="0.840278" stroke-linejoin="round" fill="#00008B"/><path d="M499.363 185.624C500.031 185.624 500.673 185.358 501.145 184.886 501.618 184.413 501.884 183.772 501.884 183.103 501.884 182.435 501.618 181.793 501.145 181.321 500.673 180.848 500.031 180.582 499.363 180.582 498.694 180.582 498.053 180.848 497.58 181.321 497.108 181.793 496.842 182.435 496.842 183.103 496.842 183.772 497.108 184.413 497.58 184.886 498.053 185.358 498.694 185.624 499.363 185.624Z" stroke="#00008B" stroke-width="0.840278" stroke-linejoin="round" fill="#00008B"/><path d="M570.891 107.529C571.559 107.529 572.2 107.263 572.673 106.79 573.146 106.318 573.411 105.676 573.411 105.008 573.411 104.339 573.146 103.698 572.673 103.225 572.2 102.753 571.559 102.487 570.891 102.487 570.222 102.487 569.581 102.753 569.108 103.225 568.635 103.698 568.37 104.339 568.37 105.008 568.37 105.676 568.635 106.318 569.108 106.79 569.581 107.263 570.222 107.529 570.891 107.529Z" stroke="#00008B" stroke-width="0.840278" stroke-linejoin="round" fill="#00008B"/></g><g><path d="M148.88 325.322 148.88 23.1917" stroke="#808080" stroke-width="1.26042" stroke-linejoin="round" stroke-dasharray="4.66354 2.01667" fill="none"/></g><path d="M45.1649 325.322 45.1649 23.1917" stroke="#000000" stroke-width="0.672222" stroke-linecap="square" fill="none"/><path d="M595.925 325.322 595.925 23.1917" stroke="#000000" stroke-width="0.672222" stroke-linecap="square" fill="none"/><path d="M45.1649 325.322 595.925 325.322" stroke="#000000" stroke-width="0.672222" stroke-linecap="square" fill="none"/><path d="M45.1649 23.1917 595.925 23.1917" stroke="#000000" stroke-width="0.672222" stroke-linecap="square" fill="none"/><path d="M0.938223 0.627451 2.15649 0.627451 2.15649 4.83409 0.830693 4.56822 0.830693 5.24767 2.1494 5.51354 2.89502 5.51354 2.89502 0.627451 4.11329 0.627451 4.11329 0 0.938223 0 0.938223 0.627451Z" transform="matrix(1 0 0 -1 59.3744 207.29)"/><path d="M3.06872 2.97301C3.42558 2.89659 3.70405 2.73747 3.90414 2.49563 4.10502 2.25457 4.20546 1.9568 4.20546 1.6023 4.20546 1.05875 4.01837 0.637692 3.64418 0.339131 3.26999 0.0413574 2.73825-0.107529 2.04896-0.107529 1.81816-0.107529 1.58024-0.0846843 1.33525-0.0389941 1.09026 0.00669597 0.83739 0.0752312 0.576641 0.166611L0.576641 0.88623C0.783034 0.765703 1.00912 0.674717 1.2549 0.613271 1.50148 0.551826 1.75907 0.521104 2.0277 0.521104 2.49483 0.521104 2.85091 0.613271 3.0959 0.797607 3.34089 0.981943 3.46339 1.25018 3.46339 1.6023 3.46339 1.92765 3.34956 2.1817 3.12189 2.36446 2.89423 2.54801 2.57755 2.63979 2.17186 2.63979L1.52904 2.63979 1.52904 3.25306 2.2014 3.25306C2.56771 3.25306 2.84814 3.32632 3.04272 3.47284 3.23731 3.61937 3.33459 3.83049 3.33459 4.1062 3.33459 4.389 3.23415 4.60604 3.03327 4.75729 2.83318 4.90933 2.54605 4.98534 2.17186 4.98534 1.96704 4.98534 1.74765 4.96289 1.51368 4.91799 1.27972 4.87388 1.02251 4.80534 0.74207 4.71238L0.74207 5.37646C1.02566 5.45525 1.29114 5.51433 1.5385 5.55371 1.78585 5.5931 2.01903 5.61279 2.23803 5.61279 2.80442 5.61279 3.25227 5.48399 3.58155 5.2264 3.91162 4.96959 4.07666 4.62219 4.07666 4.18419 4.07666 3.87853 3.98922 3.62055 3.81434 3.41021 3.63945 3.19988 3.39092 3.05415 3.06872 2.97301Z" transform="matrix(1 0 0 -1 64.1859 207.29)"/><path d="M2.40346 2.61852C2.04896 2.61852 1.7701 2.52359 1.56686 2.33374 1.36441 2.14389 1.26317 1.88315 1.26317 1.55149 1.26317 1.21906 1.36441 0.957917 1.56686 0.768066 1.7701 0.578216 2.04896 0.483291 2.40346 0.483291 2.75795 0.483291 3.03721 0.57861 3.24124 0.769248 3.44605 0.960674 3.54847 1.22143 3.54847 1.55149 3.54847 1.88315 3.44685 2.14389 3.2436 2.33374 3.04115 2.52359 2.7611 2.61852 2.40346 2.61852ZM1.65784 2.9352C1.33801 3.01398 1.08868 3.16286 0.909863 3.38186 0.731829 3.60164 0.642812 3.86908 0.642812 4.18419 0.642812 4.62455 0.799577 4.97273 1.11311 5.22876 1.42742 5.48479 1.85754 5.61279 2.40346 5.61279 2.95253 5.61279 3.38343 5.48479 3.69617 5.22876 4.00892 4.97273 4.16528 4.62455 4.16528 4.18419 4.16528 3.86908 4.07587 3.60164 3.89705 3.38186 3.71901 3.16286 3.47127 3.01398 3.1538 2.9352 3.51302 2.85169 3.79268 2.68784 3.99276 2.44363 4.19364 2.20021 4.29408 1.90283 4.29408 1.55149 4.29408 1.0166 4.13102 0.606182 3.80488 0.320225 3.47875 0.0350554 3.01161-0.107529 2.40346-0.107529 1.79609-0.107529 1.32896 0.0350554 1.00203 0.320225 0.675898 0.606182 0.512832 1.0166 0.512832 1.55149 0.512832 1.90283 0.613665 2.20021 0.815332 2.44363 1.01779 2.68784 1.29862 2.85169 1.65784 2.9352ZM1.38488 4.11329C1.38488 3.82813 1.4739 3.60558 1.65193 3.44566 1.83075 3.28575 2.08126 3.20579 2.40346 3.20579 2.72407 3.20579 2.97458 3.28575 3.15498 3.44566 3.33616 3.60558 3.42676 3.82813 3.42676 4.11329 3.42676 4.39925 3.33616 4.62219 3.15498 4.7821 2.97458 4.94201 2.72407 5.02197 2.40346 5.02197 2.08126 5.02197 1.83075 4.94201 1.65193 4.7821 1.4739 4.62219 1.38488 4.39925 1.38488 4.11329Z" transform="matrix(1 0 0 -1 68.9974 207.29)"/><path d="M0.808242 0.938223 1.58812 0.938223 1.58812 0 0.808242 0 0.808242 0.938223Z" transform="matrix(1 0 0 -1 73.8089 207.29)"/><path d="M0.816514 5.51354 3.74462 5.51354 3.74462 4.8849 1.4995 4.8849 1.4995 3.53429C1.60742 3.57131 1.71535 3.59889 1.82327 3.617 1.93198 3.63512 2.04069 3.64418 2.1494 3.64418 2.76465 3.64418 3.25188 3.4756 3.61109 3.13844 3.9711 2.80128 4.1511 2.34476 4.1511 1.76892 4.1511 1.17573 3.96638 0.714499 3.59691 0.385215 3.22745 0.0567188 2.70675-0.107529 2.03479-0.107529 1.80318-0.107529 1.56725-0.0878352 1.32698-0.0484473 1.0875-0.00905925 0.839753 0.0500228 0.58373 0.128799L0.58373 0.879141C0.805091 0.758613 1.03394 0.668809 1.27026 0.609727 1.50659 0.550645 1.75631 0.521104 2.01942 0.521104 2.44561 0.521104 2.78276 0.632966 3.03091 0.856689 3.27984 1.08041 3.40431 1.38449 3.40431 1.76892 3.40431 2.15256 3.27984 2.45624 3.03091 2.67996 2.78276 2.90447 2.44561 3.01673 2.01942 3.01673 1.82012 3.01673 1.62121 2.99467 1.4227 2.95056 1.22497 2.90645 1.02291 2.83751 0.816514 2.74377L0.816514 5.51354Z" transform="matrix(1 0 0 -1 76.2128 207.29)"/><path d="M0.816514 5.51354 3.74462 5.51354 3.74462 4.8849 1.4995 4.8849 1.4995 3.53429C1.60742 3.57131 1.71535 3.59889 1.82327 3.617 1.93198 3.63512 2.04069 3.64418 2.1494 3.64418 2.76465 3.64418 3.25188 3.4756 3.61109 3.13844 3.9711 2.80128 4.1511 2.34476 4.1511 1.76892 4.1511 1.17573 3.96638 0.714499 3.59691 0.385215 3.22745 0.0567188 2.70675-0.107529 2.03479-0.107529 1.80318-0.107529 1.56725-0.0878352 1.32698-0.0484473 1.0875-0.00905925 0.839753 0.0500228 0.58373 0.128799L0.58373 0.879141C0.805091 0.758613 1.03394 0.668809 1.27026 0.609727 1.50659 0.550645 1.75631 0.521104 2.01942 0.521104 2.44561 0.521104 2.78276 0.632966 3.03091 0.856689 3.27984 1.08041 3.40431 1.38449 3.40431 1.76892 3.40431 2.15256 3.27984 2.45624 3.03091 2.67996 2.78276 2.90447 2.44561 3.01673 2.01942 3.01673 1.82012 3.01673 1.62121 2.99467 1.4227 2.95056 1.22497 2.90645 1.02291 2.83751 0.816514 2.74377L0.816514 5.51354Z" transform="matrix(1 0 0 -1 133.308 280.705)"/><path d="M0.938223 0.627451 2.15649 0.627451 2.15649 4.83409 0.830693 4.56822 0.830693 5.24767 2.1494 5.51354 2.89502 5.51354 2.89502 0.627451 4.11329 0.627451 4.11329 0 0.938223 0 0.938223 0.627451Z" transform="matrix(1 0 0 -1 138.119 280.705)"/><path d="M0.808242 0.938223 1.58812 0.938223 1.58812 0 0.808242 0 0.808242 0.938223Z" transform="matrix(1 0 0 -1 142.931 280.705)"/><path d="M0.830693 0.114619 0.830693 0.794062C1.01818 0.705046 1.20764 0.637298 1.39906 0.59082 1.59128 0.544343 1.77994 0.521104 1.96507 0.521104 2.45742 0.521104 2.83318 0.686533 3.09235 1.01739 3.35231 1.34825 3.50081 1.85124 3.53783 2.52635 3.39524 2.31444 3.21406 2.15177 2.99428 2.03833 2.77528 1.92489 2.53305 1.86817 2.26757 1.86817 1.71613 1.86817 1.27972 2.03479 0.958311 2.36801 0.636904 2.70202 0.476201 3.15853 0.476201 3.73753 0.476201 4.30315 0.643601 4.7569 0.978398 5.09878 1.31319 5.44146 1.75867 5.61279 2.31483 5.61279 2.95292 5.61279 3.43976 5.36819 3.77534 4.87899 4.11172 4.39059 4.2799 3.6812 4.2799 2.75086 4.2799 1.88196 4.07351 1.18834 3.66072 0.66999 3.24872 0.151643 2.69453-0.107529 1.99815-0.107529 1.81066-0.107529 1.62082-0.0890169 1.4286-0.0519922 1.23718-0.0149675 1.03787 0.0405696 0.830693 0.114619ZM2.31483 2.4519C2.64963 2.4519 2.91472 2.56613 3.11008 2.79458 3.30623 3.02382 3.40431 3.33813 3.40431 3.73753 3.40431 4.13377 3.30623 4.4469 3.11008 4.67693 2.91472 4.90696 2.64963 5.02197 2.31483 5.02197 1.98004 5.02197 1.71495 4.90696 1.51959 4.67693 1.32423 4.4469 1.22654 4.13377 1.22654 3.73753 1.22654 3.33813 1.32423 3.02382 1.51959 2.79458 1.71495 2.56613 1.98004 2.4519 2.31483 2.4519Z" transform="matrix(1 0 0 -1 145.334 280.705)"/><path d="M1.45105 0.627451 4.05421 0.627451 4.05421 0 0.554189 0 0.554189 0.627451C0.836995 0.920498 1.22261 1.31359 1.71102 1.80673 2.20021 2.30065 2.50744 2.61931 2.6327 2.76268 2.87139 3.03052 3.038 3.25739 3.13253 3.4433 3.22785 3.62921 3.27551 3.81197 3.27551 3.99158 3.27551 4.28463 3.17271 4.52332 2.9671 4.70766 2.76149 4.89278 2.49365 4.98534 2.16358 4.98534 1.92962 4.98534 1.68266 4.94478 1.4227 4.86363 1.16352 4.78249 0.88623 4.65921 0.59082 4.49378L0.59082 5.24767C0.890957 5.36819 1.1714 5.45918 1.43215 5.52063 1.69368 5.58207 1.93277 5.61279 2.1494 5.61279 2.72053 5.61279 3.17586 5.46981 3.51538 5.18386 3.8549 4.89869 4.02467 4.51741 4.02467 4.04003 4.02467 3.81315 3.98213 3.5981 3.89705 3.39485 3.81276 3.1924 3.65836 2.95331 3.43385 2.6776 3.3724 2.60591 3.17664 2.39952 2.84657 2.05842 2.51728 1.71731 2.05212 1.24033 1.45105 0.627451Z" transform="matrix(1 0 0 -1 204.835 303.111)"/><path d="M0.816514 5.51354 3.74462 5.51354 3.74462 4.8849 1.4995 4.8849 1.4995 3.53429C1.60742 3.57131 1.71535 3.59889 1.82327 3.617 1.93198 3.63512 2.04069 3.64418 2.1494 3.64418 2.76465 3.64418 3.25188 3.4756 3.61109 3.13844 3.9711 2.80128 4.1511 2.34476 4.1511 1.76892 4.1511 1.17573 3.96638 0.714499 3.59691 0.385215 3.22745 0.0567188 2.70675-0.107529 2.03479-0.107529 1.80318-0.107529 1.56725-0.0878352 1.32698-0.0484473 1.0875-0.00905925 0.839753 0.0500228 0.58373 0.128799L0.58373 0.879141C0.805091 0.758613 1.03394 0.668809 1.27026 0.609727 1.50659 0.550645 1.75631 0.521104 2.01942 0.521104 2.44561 0.521104 2.78276 0.632966 3.03091 0.856689 3.27984 1.08041 3.40431 1.38449 3.40431 1.76892 3.40431 2.15256 3.27984 2.45624 3.03091 2.67996 2.78276 2.90447 2.44561 3.01673 2.01942 3.01673 1.82012 3.01673 1.62121 2.99467 1.4227 2.95056 1.22497 2.90645 1.02291 2.83751 0.816514 2.74377L0.816514 5.51354Z" transform="matrix(1 0 0 -1 209.646 303.111)"/><path d="M0.808242 0.938223 1.58812 0.938223 1.58812 0 0.808242 0 0.808242 0.938223Z" transform="matrix(1 0 0 -1 214.457 303.111)"/><path d="M2.85839 4.86363 0.974854 1.92017 2.85839 1.92017 2.85839 4.86363ZM2.66224 5.51354 3.60046 5.51354 3.60046 1.92017 4.38743 1.92017 4.38743 1.2998 3.60046 1.2998 3.60046 0 2.85839 0 2.85839 1.2998 0.369854 1.2998 0.369854 2.01942 2.66224 5.51354Z" transform="matrix(1 0 0 -1 216.861 303.111)"/><path d="M0.830693 0.114619 0.830693 0.794062C1.01818 0.705046 1.20764 0.637298 1.39906 0.59082 1.59128 0.544343 1.77994 0.521104 1.96507 0.521104 2.45742 0.521104 2.83318 0.686533 3.09235 1.01739 3.35231 1.34825 3.50081 1.85124 3.53783 2.52635 3.39524 2.31444 3.21406 2.15177 2.99428 2.03833 2.77528 1.92489 2.53305 1.86817 2.26757 1.86817 1.71613 1.86817 1.27972 2.03479 0.958311 2.36801 0.636904 2.70202 0.476201 3.15853 0.476201 3.73753 0.476201 4.30315 0.643601 4.7569 0.978398 5.09878 1.31319 5.44146 1.75867 5.61279 2.31483 5.61279 2.95292 5.61279 3.43976 5.36819 3.77534 4.87899 4.11172 4.39059 4.2799 3.6812 4.2799 2.75086 4.2799 1.88196 4.07351 1.18834 3.66072 0.66999 3.24872 0.151643 2.69453-0.107529 1.99815-0.107529 1.81066-0.107529 1.62082-0.0890169 1.4286-0.0519922 1.23718-0.0149675 1.03787 0.0405696 0.830693 0.114619ZM2.31483 2.4519C2.64963 2.4519 2.91472 2.56613 3.11008 2.79458 3.30623 3.02382 3.40431 3.33813 3.40431 3.73753 3.40431 4.13377 3.30623 4.4469 3.11008 4.67693 2.91472 4.90696 2.64963 5.02197 2.31483 5.02197 1.98004 5.02197 1.71495 4.90696 1.51959 4.67693 1.32423 4.4469 1.22654 4.13377 1.22654 3.73753 1.22654 3.33813 1.32423 3.02382 1.51959 2.79458 1.71495 2.56613 1.98004 2.4519 2.31483 2.4519Z" transform="matrix(1 0 0 -1 276.362 240.759)"/><path d="M0.830693 0.114619 0.830693 0.794062C1.01818 0.705046 1.20764 0.637298 1.39906 0.59082 1.59128 0.544343 1.77994 0.521104 1.96507 0.521104 2.45742 0.521104 2.83318 0.686533 3.09235 1.01739 3.35231 1.34825 3.50081 1.85124 3.53783 2.52635 3.39524 2.31444 3.21406 2.15177 2.99428 2.03833 2.77528 1.92489 2.53305 1.86817 2.26757 1.86817 1.71613 1.86817 1.27972 2.03479 0.958311 2.36801 0.636904 2.70202 0.476201 3.15853 0.476201 3.73753 0.476201 4.30315 0.643601 4.7569 0.978398 5.09878 1.31319 5.44146 1.75867 5.61279 2.31483 5.61279 2.95292 5.61279 3.43976 5.36819 3.77534 4.87899 4.11172 4.39059 4.2799 3.6812 4.2799 2.75086 4.2799 1.88196 4.07351 1.18834 3.66072 0.66999 3.24872 0.151643 2.69453-0.107529 1.99815-0.107529 1.81066-0.107529 1.62082-0.0890169 1.4286-0.0519922 1.23718-0.0149675 1.03787 0.0405696 0.830693 0.114619ZM2.31483 2.4519C2.64963 2.4519 2.91472 2.56613 3.11008 2.79458 3.30623 3.02382 3.40431 3.33813 3.40431 3.73753 3.40431 4.13377 3.30623 4.4469 3.11008 4.67693 2.91472 4.90696 2.64963 5.02197 2.31483 5.02197 1.98004 5.02197 1.71495 4.90696 1.51959 4.67693 1.32423 4.4469 1.22654 4.13377 1.22654 3.73753 1.22654 3.33813 1.32423 3.02382 1.51959 2.79458 1.71495 2.56613 1.98004 2.4519 2.31483 2.4519Z" transform="matrix(1 0 0 -1 281.174 240.759)"/><path d="M0.808242 0.938223 1.58812 0.938223 1.58812 0 0.808242 0 0.808242 0.938223Z" transform="matrix(1 0 0 -1 285.985 240.759)"/><path d="M2.40346 5.02197C2.01981 5.02197 1.7311 4.83291 1.53731 4.45479 1.34432 4.07745 1.24781 3.50947 1.24781 2.75086 1.24781 1.9954 1.34432 1.4286 1.53731 1.05048 1.7311 0.672354 2.01981 0.483291 2.40346 0.483291 2.79024 0.483291 3.08015 0.672354 3.27314 1.05048 3.46693 1.4286 3.56383 1.9954 3.56383 2.75086 3.56383 3.50947 3.46693 4.07745 3.27314 4.45479 3.08015 4.83291 2.79024 5.02197 2.40346 5.02197ZM2.40346 5.61279C3.02185 5.61279 3.49411 5.36819 3.82024 4.87899 4.14638 4.39059 4.30944 3.6812 4.30944 2.75086 4.30944 1.82288 4.14638 1.11429 3.82024 0.625088 3.49411 0.136677 3.02185-0.107529 2.40346-0.107529 1.78585-0.107529 1.31398 0.136677 0.987852 0.625088 0.661719 1.11429 0.498652 1.82288 0.498652 2.75086 0.498652 3.6812 0.661719 4.39059 0.987852 4.87899 1.31398 5.36819 1.78585 5.61279 2.40346 5.61279Z" transform="matrix(1 0 0 -1 288.389 240.759)"/><path d="M0.816514 5.51354 3.74462 5.51354 3.74462 4.8849 1.4995 4.8849 1.4995 3.53429C1.60742 3.57131 1.71535 3.59889 1.82327 3.617 1.93198 3.63512 2.04069 3.64418 2.1494 3.64418 2.76465 3.64418 3.25188 3.4756 3.61109 3.13844 3.9711 2.80128 4.1511 2.34476 4.1511 1.76892 4.1511 1.17573 3.96638 0.714499 3.59691 0.385215 3.22745 0.0567188 2.70675-0.107529 2.03479-0.107529 1.80318-0.107529 1.56725-0.0878352 1.32698-0.0484473 1.0875-0.00905925 0.839753 0.0500228 0.58373 0.128799L0.58373 0.879141C0.805091 0.758613 1.03394 0.668809 1.27026 0.609727 1.50659 0.550645 1.75631 0.521104 2.01942 0.521104 2.44561 0.521104 2.78276 0.632966 3.03091 0.856689 3.27984 1.08041 3.40431 1.38449 3.40431 1.76892 3.40431 2.15256 3.27984 2.45624 3.03091 2.67996 2.78276 2.90447 2.44561 3.01673 2.01942 3.01673 1.82012 3.01673 1.62121 2.99467 1.4227 2.95056 1.22497 2.90645 1.02291 2.83751 0.816514 2.74377L0.816514 5.51354Z" transform="matrix(1 0 0 -1 347.889 279.62)"/><path d="M3.06872 2.97301C3.42558 2.89659 3.70405 2.73747 3.90414 2.49563 4.10502 2.25457 4.20546 1.9568 4.20546 1.6023 4.20546 1.05875 4.01837 0.637692 3.64418 0.339131 3.26999 0.0413574 2.73825-0.107529 2.04896-0.107529 1.81816-0.107529 1.58024-0.0846843 1.33525-0.0389941 1.09026 0.00669597 0.83739 0.0752312 0.576641 0.166611L0.576641 0.88623C0.783034 0.765703 1.00912 0.674717 1.2549 0.613271 1.50148 0.551826 1.75907 0.521104 2.0277 0.521104 2.49483 0.521104 2.85091 0.613271 3.0959 0.797607 3.34089 0.981943 3.46339 1.25018 3.46339 1.6023 3.46339 1.92765 3.34956 2.1817 3.12189 2.36446 2.89423 2.54801 2.57755 2.63979 2.17186 2.63979L1.52904 2.63979 1.52904 3.25306 2.2014 3.25306C2.56771 3.25306 2.84814 3.32632 3.04272 3.47284 3.23731 3.61937 3.33459 3.83049 3.33459 4.1062 3.33459 4.389 3.23415 4.60604 3.03327 4.75729 2.83318 4.90933 2.54605 4.98534 2.17186 4.98534 1.96704 4.98534 1.74765 4.96289 1.51368 4.91799 1.27972 4.87388 1.02251 4.80534 0.74207 4.71238L0.74207 5.37646C1.02566 5.45525 1.29114 5.51433 1.5385 5.55371 1.78585 5.5931 2.01903 5.61279 2.23803 5.61279 2.80442 5.61279 3.25227 5.48399 3.58155 5.2264 3.91162 4.96959 4.07666 4.62219 4.07666 4.18419 4.07666 3.87853 3.98922 3.62055 3.81434 3.41021 3.63945 3.19988 3.39092 3.05415 3.06872 2.97301Z" transform="matrix(1 0 0 -1 352.701 279.62)"/><path d="M0.808242 0.938223 1.58812 0.938223 1.58812 0 0.808242 0 0.808242 0.938223Z" transform="matrix(1 0 0 -1 357.512 279.62)"/><path d="M1.45105 0.627451 4.05421 0.627451 4.05421 0 0.554189 0 0.554189 0.627451C0.836995 0.920498 1.22261 1.31359 1.71102 1.80673 2.20021 2.30065 2.50744 2.61931 2.6327 2.76268 2.87139 3.03052 3.038 3.25739 3.13253 3.4433 3.22785 3.62921 3.27551 3.81197 3.27551 3.99158 3.27551 4.28463 3.17271 4.52332 2.9671 4.70766 2.76149 4.89278 2.49365 4.98534 2.16358 4.98534 1.92962 4.98534 1.68266 4.94478 1.4227 4.86363 1.16352 4.78249 0.88623 4.65921 0.59082 4.49378L0.59082 5.24767C0.890957 5.36819 1.1714 5.45918 1.43215 5.52063 1.69368 5.58207 1.93277 5.61279 2.1494 5.61279 2.72053 5.61279 3.17586 5.46981 3.51538 5.18386 3.8549 4.89869 4.02467 4.51741 4.02467 4.04003 4.02467 3.81315 3.98213 3.5981 3.89705 3.39485 3.81276 3.1924 3.65836 2.95331 3.43385 2.6776 3.3724 2.60591 3.17664 2.39952 2.84657 2.05842 2.51728 1.71731 2.05212 1.24033 1.45105 0.627451Z" transform="matrix(1 0 0 -1 359.916 279.62)"/><path d="M3.06872 2.97301C3.42558 2.89659 3.70405 2.73747 3.90414 2.49563 4.10502 2.25457 4.20546 1.9568 4.20546 1.6023 4.20546 1.05875 4.01837 0.637692 3.64418 0.339131 3.26999 0.0413574 2.73825-0.107529 2.04896-0.107529 1.81816-0.107529 1.58024-0.0846843 1.33525-0.0389941 1.09026 0.00669597 0.83739 0.0752312 0.576641 0.166611L0.576641 0.88623C0.783034 0.765703 1.00912 0.674717 1.2549 0.613271 1.50148 0.551826 1.75907 0.521104 2.0277 0.521104 2.49483 0.521104 2.85091 0.613271 3.0959 0.797607 3.34089 0.981943 3.46339 1.25018 3.46339 1.6023 3.46339 1.92765 3.34956 2.1817 3.12189 2.36446 2.89423 2.54801 2.57755 2.63979 2.17186 2.63979L1.52904 2.63979 1.52904 3.25306 2.2014 3.25306C2.56771 3.25306 2.84814 3.32632 3.04272 3.47284 3.23731 3.61937 3.33459 3.83049 3.33459 4.1062 3.33459 4.389 3.23415 4.60604 3.03327 4.75729 2.83318 4.90933 2.54605 4.98534 2.17186 4.98534 1.96704 4.98534 1.74765 4.96289 1.51368 4.91799 1.27972 4.87388 1.02251 4.80534 0.74207 4.71238L0.74207 5.37646C1.02566 5.45525 1.29114 5.51433 1.5385 5.55371 1.78585 5.5931 2.01903 5.61279 2.23803 5.61279 2.80442 5.61279 3.25227 5.48399 3.58155 5.2264 3.91162 4.96959 4.07666 4.62219 4.07666 4.18419 4.07666 3.87853 3.98922 3.62055 3.81434 3.41021 3.63945 3.19988 3.39092 3.05415 3.06872 2.97301Z" transform="matrix(1 0 0 -1 417.011 28.4474)"/><path d="M2.85839 4.86363 0.974854 1.92017 2.85839 1.92017 2.85839 4.86363ZM2.66224 5.51354 3.60046 5.51354 3.60046 1.92017 4.38743 1.92017 4.38743 1.2998 3.60046 1.2998 3.60046 0 2.85839 0 2.85839 1.2998 0.369854 1.2998 0.369854 2.01942 2.66224 5.51354Z" transform="matrix(1 0 0 -1 421.822 28.4474)"/><path d="M0.830693 0.114619 0.830693 0.794062C1.01818 0.705046 1.20764 0.637298 1.39906 0.59082 1.59128 0.544343 1.77994 0.521104 1.96507 0.521104 2.45742 0.521104 2.83318 0.686533 3.09235 1.01739 3.35231 1.34825 3.50081 1.85124 3.53783 2.52635 3.39524 2.31444 3.21406 2.15177 2.99428 2.03833 2.77528 1.92489 2.53305 1.86817 2.26757 1.86817 1.71613 1.86817 1.27972 2.03479 0.958311 2.36801 0.636904 2.70202 0.476201 3.15853 0.476201 3.73753 0.476201 4.30315 0.643601 4.7569 0.978398 5.09878 1.31319 5.44146 1.75867 5.61279 2.31483 5.61279 2.95292 5.61279 3.43976 5.36819 3.77534 4.87899 4.11172 4.39059 4.2799 3.6812 4.2799 2.75086 4.2799 1.88196 4.07351 1.18834 3.66072 0.66999 3.24872 0.151643 2.69453-0.107529 1.99815-0.107529 1.81066-0.107529 1.62082-0.0890169 1.4286-0.0519922 1.23718-0.0149675 1.03787 0.0405696 0.830693 0.114619ZM2.31483 2.4519C2.64963 2.4519 2.91472 2.56613 3.11008 2.79458 3.30623 3.02382 3.40431 3.33813 3.40431 3.73753 3.40431 4.13377 3.30623 4.4469 3.11008 4.67693 2.91472 4.90696 2.64963 5.02197 2.31483 5.02197 1.98004 5.02197 1.71495 4.90696 1.51959 4.67693 1.32423 4.4469 1.22654 4.13377 1.22654 3.73753 1.22654 3.33813 1.32423 3.02382 1.51959 2.79458 1.71495 2.56613 1.98004 2.4519 2.31483 2.4519Z" transform="matrix(1 0 0 -1 426.634 28.4474)"/><path d="M0.808242 0.938223 1.58812 0.938223 1.58812 0 0.808242 0 0.808242 0.938223Z" transform="matrix(1 0 0 -1 431.445 28.4474)"/><path d="M2.85839 4.86363 0.974854 1.92017 2.85839 1.92017 2.85839 4.86363ZM2.66224 5.51354 3.60046 5.51354 3.60046 1.92017 4.38743 1.92017 4.38743 1.2998 3.60046 1.2998 3.60046 0 2.85839 0 2.85839 1.2998 0.369854 1.2998 0.369854 2.01942 2.66224 5.51354Z" transform="matrix(1 0 0 -1 433.849 28.4474)"/><path d="M0.938223 0.627451 2.15649 0.627451 2.15649 4.83409 0.830693 4.56822 0.830693 5.24767 2.1494 5.51354 2.89502 5.51354 2.89502 0.627451 4.11329 0.627451 4.11329 0 0.938223 0 0.938223 0.627451Z" transform="matrix(1 0 0 -1 488.538 174.626)"/><path d="M0.620361 5.51354 4.16528 5.51354 4.16528 5.19567 2.16358 0 1.38488 0 3.26842 4.8849 0.620361 4.8849 0.620361 5.51354Z" transform="matrix(1 0 0 -1 493.35 174.626)"/><path d="M0.620361 5.51354 4.16528 5.51354 4.16528 5.19567 2.16358 0 1.38488 0 3.26842 4.8849 0.620361 4.8849 0.620361 5.51354Z" transform="matrix(1 0 0 -1 498.161 174.626)"/><path d="M0.808242 0.938223 1.58812 0.938223 1.58812 0 0.808242 0 0.808242 0.938223Z" transform="matrix(1 0 0 -1 502.973 174.626)"/><path d="M2.40346 5.02197C2.01981 5.02197 1.7311 4.83291 1.53731 4.45479 1.34432 4.07745 1.24781 3.50947 1.24781 2.75086 1.24781 1.9954 1.34432 1.4286 1.53731 1.05048 1.7311 0.672354 2.01981 0.483291 2.40346 0.483291 2.79024 0.483291 3.08015 0.672354 3.27314 1.05048 3.46693 1.4286 3.56383 1.9954 3.56383 2.75086 3.56383 3.50947 3.46693 4.07745 3.27314 4.45479 3.08015 4.83291 2.79024 5.02197 2.40346 5.02197ZM2.40346 5.61279C3.02185 5.61279 3.49411 5.36819 3.82024 4.87899 4.14638 4.39059 4.30944 3.6812 4.30944 2.75086 4.30944 1.82288 4.14638 1.11429 3.82024 0.625088 3.49411 0.136677 3.02185-0.107529 2.40346-0.107529 1.78585-0.107529 1.31398 0.136677 0.987852 0.625088 0.661719 1.11429 0.498652 1.82288 0.498652 2.75086 0.498652 3.6812 0.661719 4.39059 0.987852 4.87899 1.31398 5.36819 1.78585 5.61279 2.40346 5.61279Z" transform="matrix(1 0 0 -1 505.377 174.626)"/><path d="M1.45105 0.627451 4.05421 0.627451 4.05421 0 0.554189 0 0.554189 0.627451C0.836995 0.920498 1.22261 1.31359 1.71102 1.80673 2.20021 2.30065 2.50744 2.61931 2.6327 2.76268 2.87139 3.03052 3.038 3.25739 3.13253 3.4433 3.22785 3.62921 3.27551 3.81197 3.27551 3.99158 3.27551 4.28463 3.17271 4.52332 2.9671 4.70766 2.76149 4.89278 2.49365 4.98534 2.16358 4.98534 1.92962 4.98534 1.68266 4.94478 1.4227 4.86363 1.16352 4.78249 0.88623 4.65921 0.59082 4.49378L0.59082 5.24767C0.890957 5.36819 1.1714 5.45918 1.43215 5.52063 1.69368 5.58207 1.93277 5.61279 2.1494 5.61279 2.72053 5.61279 3.17586 5.46981 3.51538 5.18386 3.8549 4.89869 4.02467 4.51741 4.02467 4.04003 4.02467 3.81315 3.98213 3.5981 3.89705 3.39485 3.81276 3.1924 3.65836 2.95331 3.43385 2.6776 3.3724 2.60591 3.17664 2.39952 2.84657 2.05842 2.51728 1.71731 2.05212 1.24033 1.45105 0.627451Z" transform="matrix(1 0 0 -1 560.065 96.5303)"/><path d="M2.49681 3.05336C2.16201 3.05336 1.89653 2.93874 1.70038 2.7095 1.50502 2.48106 1.40733 2.16752 1.40733 1.76892 1.40733 1.37268 1.50502 1.05914 1.70038 0.82833 1.89653 0.598304 2.16201 0.483291 2.49681 0.483291 2.8316 0.483291 3.09669 0.598304 3.29205 0.82833 3.48741 1.05914 3.5851 1.37268 3.5851 1.76892 3.5851 2.16752 3.48741 2.48106 3.29205 2.7095 3.09669 2.93874 2.8316 3.05336 2.49681 3.05336ZM3.9774 5.39183 3.9774 4.71238C3.78991 4.80062 3.60085 4.86797 3.41021 4.91444 3.21958 4.96171 3.03052 4.98534 2.84303 4.98534 2.35067 4.98534 1.97452 4.81912 1.71456 4.48669 1.45539 4.15426 1.30728 3.65206 1.27026 2.9801 1.41522 3.19436 1.59719 3.35861 1.81618 3.47284 2.03597 3.58707 2.27741 3.64418 2.54053 3.64418 3.09433 3.64418 3.53192 3.476 3.85333 3.13962 4.17474 2.80403 4.33544 2.34713 4.33544 1.76892 4.33544 1.20252 4.16804 0.747979 3.83324 0.405303 3.49845 0.0634148 3.05297-0.107529 2.49681-0.107529 1.85872-0.107529 1.37109 0.136677 1.03394 0.625088 0.696774 1.11429 0.528193 1.82288 0.528193 2.75086 0.528193 3.62212 0.73498 4.31692 1.14855 4.83527 1.56213 5.35362 2.11711 5.61279 2.81349 5.61279 3.00098 5.61279 3.19004 5.59428 3.38067 5.55726 3.57131 5.52024 3.77023 5.46509 3.9774 5.39183Z" transform="matrix(1 0 0 -1 564.877 96.5303)"/><path d="M0.830693 0.114619 0.830693 0.794062C1.01818 0.705046 1.20764 0.637298 1.39906 0.59082 1.59128 0.544343 1.77994 0.521104 1.96507 0.521104 2.45742 0.521104 2.83318 0.686533 3.09235 1.01739 3.35231 1.34825 3.50081 1.85124 3.53783 2.52635 3.39524 2.31444 3.21406 2.15177 2.99428 2.03833 2.77528 1.92489 2.53305 1.86817 2.26757 1.86817 1.71613 1.86817 1.27972 2.03479 0.958311 2.36801 0.636904 2.70202 0.476201 3.15853 0.476201 3.73753 0.476201 4.30315 0.643601 4.7569 0.978398 5.09878 1.31319 5.44146 1.75867 5.61279 2.31483 5.61279 2.95292 5.61279 3.43976 5.36819 3.77534 4.87899 4.11172 4.39059 4.2799 3.6812 4.2799 2.75086 4.2799 1.88196 4.07351 1.18834 3.66072 0.66999 3.24872 0.151643 2.69453-0.107529 1.99815-0.107529 1.81066-0.107529 1.62082-0.0890169 1.4286-0.0519922 1.23718-0.0149675 1.03787 0.0405696 0.830693 0.114619ZM2.31483 2.4519C2.64963 2.4519 2.91472 2.56613 3.11008 2.79458 3.30623 3.02382 3.40431 3.33813 3.40431 3.73753 3.40431 4.13377 3.30623 4.4469 3.11008 4.67693 2.91472 4.90696 2.64963 5.02197 2.31483 5.02197 1.98004 5.02197 1.71495 4.90696 1.51959 4.67693 1.32423 4.4469 1.22654 4.13377 1.22654 3.73753 1.22654 3.33813 1.32423 3.02382 1.51959 2.79458 1.71495 2.56613 1.98004 2.4519 2.31483 2.4519Z" transform="matrix(1 0 0 -1 569.688 96.5303)"/><path d="M0.808242 0.938223 1.58812 0.938223 1.58812 0 0.808242 0 0.808242 0.938223Z" transform="matrix(1 0 0 -1 574.5 96.5303)"/><path d="M0.938223 0.627451 2.15649 0.627451 2.15649 4.83409 0.830693 4.56822 0.830693 5.24767 2.1494 5.51354 2.89502 5.51354 2.89502 0.627451 4.11329 0.627451 4.11329 0 0.938223 0 0.938223 0.627451Z" transform="matrix(1 0 0 -1 576.904 96.5303)"/><path d="M3.60085 5.69262C3.03472 5.69262 2.58682 5.47144 2.2572 5.02906 1.92757 4.58669 1.76275 3.98073 1.76275 3.21117 1.76275 2.44161 1.92634 1.83566 2.25352 1.39329 2.58193 0.950914 3.03104 0.729729 3.60085 0.729729 4.16455 0.729729 4.61058 0.951528 4.93899 1.39512 5.26862 1.83995 5.43345 2.44529 5.43345 3.21117 5.43345 3.97338 5.26862 4.57749 4.93899 5.02355 4.61058 5.4696 4.16455 5.69262 3.60085 5.69262ZM3.60085 6.58778C4.51991 6.58778 5.24168 6.28877 5.76614 5.69078 6.29184 5.094 6.55469 4.26748 6.55469 3.21117 6.55469 2.15854 6.29184 1.33202 5.76614 0.731567 5.24168 0.132344 4.51991-0.167268 3.60085-0.167268 2.67812-0.167268 1.95514 0.132344 1.43189 0.731567 0.909863 1.33202 0.648852 2.15854 0.648852 3.21117 0.648852 4.26748 0.909863 5.094 1.43189 5.69078 1.95514 6.28877 2.67812 6.58778 3.60085 6.58778Z" transform="matrix(1 0 0 -1 206.965 18.15)"/><path d="M6.45727 6.43338 4.13023 3.30308 6.57675 0 5.33051 0 3.45748 2.5274 1.58629 0 0.338212 0 2.83804 3.36558 0.551432 6.43338 1.79767 6.43338 3.50343 4.14126 5.2092 6.43338 6.45727 6.43338Z" transform="matrix(1 0 0 -1 213.794 18.15)"/><path d="M4.03281 3.23323C3.17869 3.23323 2.58682 3.13581 2.2572 2.94097 1.92757 2.74613 1.76275 2.41283 1.76275 1.94104 1.76275 1.56607 1.8865 1.26829 2.13404 1.04772 2.38158 0.828374 2.71733 0.7187 3.14133 0.7187 3.72829 0.7187 4.19884 0.926406 4.55299 1.34182 4.90714 1.75723 5.08421 2.30927 5.08421 2.99795L5.08421 3.23323 4.03281 3.23323ZM6.14112 3.6707 6.14112 0 5.08421 0 5.08421 0.976035C4.84281 0.586356 4.54196 0.298386 4.18169 0.112125 3.82143-0.074137 3.38089-0.167268 2.8601-0.167268 2.20205-0.167268 1.67819 0.0177684 1.28851 0.387841 0.900061 0.757912 0.705833 1.25298 0.705833 1.87303 0.705833 2.59601 0.947851 3.14133 1.43189 3.50895 1.91715 3.87657 2.64013 4.06038 3.60085 4.06038L5.08421 4.06038 5.08421 4.16515C5.08421 4.65164 4.92429 5.02783 4.60446 5.29375 4.28463 5.55967 3.83552 5.69262 3.25713 5.69262 2.88951 5.69262 2.53107 5.6485 2.18183 5.56028 1.83382 5.47205 1.49928 5.3397 1.17823 5.16324L1.17823 6.14112C1.56423 6.29061 1.9392 6.40213 2.30315 6.47565 2.66709 6.55041 3.02124 6.58778 3.36558 6.58778 4.29689 6.58778 4.9923 6.34638 5.45183 5.86356 5.91135 5.38198 6.14112 4.65102 6.14112 3.6707Z" transform="matrix(1 0 0 -1 220.756 18.15)"/><path d="M1.10838 8.93872 2.16529 8.93872 2.16529 0 1.10838 0 1.10838 8.93872Z" transform="matrix(1 0 0 -1 227.965 18.15)"/><path d="M4.03281 3.23323C3.17869 3.23323 2.58682 3.13581 2.2572 2.94097 1.92757 2.74613 1.76275 2.41283 1.76275 1.94104 1.76275 1.56607 1.8865 1.26829 2.13404 1.04772 2.38158 0.828374 2.71733 0.7187 3.14133 0.7187 3.72829 0.7187 4.19884 0.926406 4.55299 1.34182 4.90714 1.75723 5.08421 2.30927 5.08421 2.99795L5.08421 3.23323 4.03281 3.23323ZM6.14112 3.6707 6.14112 0 5.08421 0 5.08421 0.976035C4.84281 0.586356 4.54196 0.298386 4.18169 0.112125 3.82143-0.074137 3.38089-0.167268 2.8601-0.167268 2.20205-0.167268 1.67819 0.0177684 1.28851 0.387841 0.900061 0.757912 0.705833 1.25298 0.705833 1.87303 0.705833 2.59601 0.947851 3.14133 1.43189 3.50895 1.91715 3.87657 2.64013 4.06038 3.60085 4.06038L5.08421 4.06038 5.08421 4.16515C5.08421 4.65164 4.92429 5.02783 4.60446 5.29375 4.28463 5.55967 3.83552 5.69262 3.25713 5.69262 2.88951 5.69262 2.53107 5.6485 2.18183 5.56028 1.83382 5.47205 1.49928 5.3397 1.17823 5.16324L1.17823 6.14112C1.56423 6.29061 1.9392 6.40213 2.30315 6.47565 2.66709 6.55041 3.02124 6.58778 3.36558 6.58778 4.29689 6.58778 4.9923 6.34638 5.45183 5.86356 5.91135 5.38198 6.14112 4.65102 6.14112 3.6707Z" transform="matrix(1 0 0 -1 231.233 18.15)"/><path d="M2.15426 8.26046 2.15426 6.43338 4.33058 6.43338 4.33058 5.61174 2.15426 5.61174 2.15426 2.11934C2.15426 1.59487 2.22595 1.25788 2.36932 1.10838 2.51269 0.95888 2.80495 0.88413 3.2461 0.88413L4.33058 0.88413 4.33058 0 3.2461 0C2.42998 0 1.86691 0.15195 1.55688 0.455851 1.24685 0.760977 1.09184 1.31547 1.09184 2.11934L1.09184 5.61174 0.316155 5.61174 0.316155 6.43338 1.09184 6.43338 1.09184 8.26046 2.15426 8.26046Z" transform="matrix(1 0 0 -1 238.442 18.15)"/><path d="M6.61167 3.48138 6.61167 2.96487 1.75172 2.96487C1.79828 2.23698 2.01764 1.68248 2.40976 1.30138 2.80188 0.92028 3.34843 0.729729 4.04935 0.729729 4.45497 0.729729 4.84832 0.779358 5.22942 0.878615 5.61051 0.977873 5.98916 1.12737 6.36537 1.32711L6.36537 0.327183C5.98549 0.166655 5.59643 0.0441146 5.19817-0.0404384 4.79991-0.124991 4.39615-0.167268 3.98686-0.167268 2.95996-0.167268 2.14691 0.131118 1.54769 0.727891 0.948463 1.32589 0.648852 2.13465 0.648852 3.15419 0.648852 4.20682 0.933147 5.04193 1.50173 5.65953 2.07032 6.27837 2.83743 6.58778 3.80304 6.58778 4.66819 6.58778 5.35257 6.30899 5.85621 5.75144 6.35985 5.1951 6.61167 4.43842 6.61167 3.48138ZM5.55476 3.79202C5.54741 4.36918 5.38566 4.82994 5.0695 5.17427 4.75335 5.51984 4.33486 5.69262 3.81407 5.69262 3.22465 5.69262 2.75288 5.52596 2.39873 5.19265 2.04458 4.85935 1.84055 4.39001 1.78664 3.78466L5.55476 3.79202Z" transform="matrix(1 0 0 -1 243.055 18.15)"/><path d="M2.13037 0.965006 2.13037-2.44652 1.06794-2.44652 1.06794 6.43338 2.13037 6.43338 2.13037 5.45734C2.35338 5.83967 2.63401 6.12334 2.97222 6.30839 3.31166 6.49464 3.71665 6.58778 4.18721 6.58778 4.96901 6.58778 5.60378 6.27774 6.09149 5.6577 6.58043 5.03765 6.82489 4.22213 6.82489 3.21117 6.82489 2.20021 6.58043 1.3841 6.09149 0.762815 5.60378 0.14276 4.96901-0.167268 4.18721-0.167268 3.71665-0.167268 3.31166-0.074137 2.97222 0.112125 2.63401 0.298386 2.35338 0.58268 2.13037 0.965006ZM5.72754 3.21117C5.72754 3.98809 5.56763 4.59771 5.2478 5.04009 4.92797 5.48247 4.48866 5.70365 3.92987 5.70365 3.36986 5.70365 2.92994 5.48247 2.61011 5.04009 2.29028 4.59771 2.13037 3.98809 2.13037 3.21117 2.13037 2.43426 2.29028 1.82463 2.61011 1.38226 2.92994 0.939885 3.36986 0.7187 3.92987 0.7187 4.48866 0.7187 4.92797 0.939885 5.2478 1.38226 5.56763 1.82463 5.72754 2.43426 5.72754 3.21117Z" transform="matrix(1 0 0 -1 254.032 18.15)"/><path d="M4.83606 5.44631C4.71719 5.51493 4.58792 5.56518 4.44822 5.59704 4.30852 5.63012 4.15473 5.64667 3.98686 5.64667 3.38886 5.64667 2.92994 5.45243 2.61011 5.06399 2.29028 4.67554 2.13037 4.11736 2.13037 3.38947L2.13037 0 1.06794 0 1.06794 6.43338 2.13037 6.43338 2.13037 5.43345C2.35338 5.82436 2.64259 6.11415 2.99795 6.30287 3.35455 6.4928 3.78773 6.58778 4.2975 6.58778 4.36979 6.58778 4.45006 6.58287 4.53829 6.57307 4.62652 6.56449 4.72394 6.55041 4.83055 6.5308L4.83606 5.44631Z" transform="matrix(1 0 0 -1 261.499 18.15)"/><path d="M3.60085 5.69262C3.03472 5.69262 2.58682 5.47144 2.2572 5.02906 1.92757 4.58669 1.76275 3.98073 1.76275 3.21117 1.76275 2.44161 1.92634 1.83566 2.25352 1.39329 2.58193 0.950914 3.03104 0.729729 3.60085 0.729729 4.16455 0.729729 4.61058 0.951528 4.93899 1.39512 5.26862 1.83995 5.43345 2.44529 5.43345 3.21117 5.43345 3.97338 5.26862 4.57749 4.93899 5.02355 4.61058 5.4696 4.16455 5.69262 3.60085 5.69262ZM3.60085 6.58778C4.51991 6.58778 5.24168 6.28877 5.76614 5.69078 6.29184 5.094 6.55469 4.26748 6.55469 3.21117 6.55469 2.15854 6.29184 1.33202 5.76614 0.731567 5.24168 0.132344 4.51991-0.167268 3.60085-0.167268 2.67812-0.167268 1.95514 0.132344 1.43189 0.731567 0.909863 1.33202 0.648852 2.15854 0.648852 3.21117 0.648852 4.26748 0.909863 5.094 1.43189 5.69078 1.95514 6.28877 2.67812 6.58778 3.60085 6.58778Z" transform="matrix(1 0 0 -1 266.071 18.15)"/><path d="M5.34154 5.45734 5.34154 8.93872 6.39845 8.93872 6.39845 0 5.34154 0 5.34154 0.965006C5.11974 0.58268 4.83913 0.298386 4.49969 0.112125 4.16148-0.074137 3.75465-0.167268 3.27918-0.167268 2.50227-0.167268 1.86936 0.14276 1.38042 0.762815 0.892708 1.3841 0.648852 2.20021 0.648852 3.21117 0.648852 4.22213 0.892708 5.03765 1.38042 5.6577 1.86936 6.27774 2.50227 6.58778 3.27918 6.58778 3.75465 6.58778 4.16148 6.49464 4.49969 6.30839 4.83913 6.12334 5.11974 5.83967 5.34154 5.45734ZM1.74069 3.21117C1.74069 2.43426 1.9006 1.82463 2.22043 1.38226 2.54026 0.939885 2.97957 0.7187 3.53836 0.7187 4.09714 0.7187 4.53706 0.939885 4.85812 1.38226 5.18039 1.82463 5.34154 2.43426 5.34154 3.21117 5.34154 3.98809 5.18039 4.59771 4.85812 5.04009 4.53706 5.48247 4.09714 5.70365 3.53836 5.70365 2.97957 5.70365 2.54026 5.48247 2.22043 5.04009 1.9006 4.59771 1.74069 3.98809 1.74069 3.21117Z" transform="matrix(1 0 0 -1 273.268 18.15)"/><path d="M0.999931 2.53843 0.999931 6.43338 2.05684 6.43338 2.05684 2.57887C2.05684 1.96984 2.17509 1.51276 2.4116 1.20764 2.64932 0.903737 3.00591 0.751786 3.48138 0.751786 4.05119 0.751786 4.50153 0.933759 4.83239 1.2977 5.16448 1.66165 5.33051 2.15794 5.33051 2.78657L5.33051 6.43338 6.38742 6.43338 6.38742 0 5.33051 0 5.33051 0.988902C5.07441 0.597997 4.77663 0.307576 4.43719 0.117639 4.09898-0.0722988 3.70562-0.167268 3.25713-0.167268 2.51821-0.167268 1.95698 0.0624957 1.57342 0.522023 1.19109 0.981549 0.999931 1.65368 0.999931 2.53843ZM3.65967 6.58778 3.65967 6.58778Z" transform="matrix(1 0 0 -1 280.736 18.15)"/><path d="M5.73857 6.18707 5.73857 5.19817C5.43957 5.3636 5.13996 5.48736 4.83974 5.56947 4.53952 5.65157 4.23623 5.69262 3.92987 5.69262 3.24365 5.69262 2.7106 5.47512 2.33072 5.04009 1.95207 4.6063 1.76275 3.99665 1.76275 3.21117 1.76275 2.4257 1.95207 1.81544 2.33072 1.38042 2.7106 0.946625 3.24365 0.729729 3.92987 0.729729 4.23623 0.729729 4.53952 0.770779 4.83974 0.852882 5.13996 0.934985 5.43957 1.05875 5.73857 1.22418L5.73857 0.246306C5.44324 0.109061 5.13751 0.00612702 4.82136-0.0624957 4.50643-0.132344 4.17067-0.167268 3.81407-0.167268 2.84478-0.167268 2.07462 0.137245 1.50357 0.746272 0.933759 1.3553 0.648852 2.17693 0.648852 3.21117 0.648852 4.26013 0.936823 5.08481 1.51276 5.68527 2.08993 6.28693 2.88031 6.58778 3.88392 6.58778 4.20866 6.58778 4.52603 6.55408 4.83606 6.48668 5.14609 6.42051 5.44692 6.32065 5.73857 6.18707Z" transform="matrix(1 0 0 -1 288.191 18.15)"/><path d="M2.15426 8.26046 2.15426 6.43338 4.33058 6.43338 4.33058 5.61174 2.15426 5.61174 2.15426 2.11934C2.15426 1.59487 2.22595 1.25788 2.36932 1.10838 2.51269 0.95888 2.80495 0.88413 3.2461 0.88413L4.33058 0.88413 4.33058 0 3.2461 0C2.42998 0 1.86691 0.15195 1.55688 0.455851 1.24685 0.760977 1.09184 1.31547 1.09184 2.11934L1.09184 5.61174 0.316155 5.61174 0.316155 6.43338 1.09184 6.43338 1.09184 8.26046 2.15426 8.26046Z" transform="matrix(1 0 0 -1 294.659 18.15)"/><path d="M1.10838 6.43338 2.16529 6.43338 2.16529 0 1.10838 0 1.10838 6.43338ZM1.10838 8.93872 2.16529 8.93872 2.16529 7.59874 1.10838 7.59874 1.10838 8.93872Z" transform="matrix(1 0 0 -1 299.272 18.15)"/><path d="M3.60085 5.69262C3.03472 5.69262 2.58682 5.47144 2.2572 5.02906 1.92757 4.58669 1.76275 3.98073 1.76275 3.21117 1.76275 2.44161 1.92634 1.83566 2.25352 1.39329 2.58193 0.950914 3.03104 0.729729 3.60085 0.729729 4.16455 0.729729 4.61058 0.951528 4.93899 1.39512 5.26862 1.83995 5.43345 2.44529 5.43345 3.21117 5.43345 3.97338 5.26862 4.57749 4.93899 5.02355 4.61058 5.4696 4.16455 5.69262 3.60085 5.69262ZM3.60085 6.58778C4.51991 6.58778 5.24168 6.28877 5.76614 5.69078 6.29184 5.094 6.55469 4.26748 6.55469 3.21117 6.55469 2.15854 6.29184 1.33202 5.76614 0.731567 5.24168 0.132344 4.51991-0.167268 3.60085-0.167268 2.67812-0.167268 1.95514 0.132344 1.43189 0.731567 0.909863 1.33202 0.648852 2.15854 0.648852 3.21117 0.648852 4.26748 0.909863 5.094 1.43189 5.69078 1.95514 6.28877 2.67812 6.58778 3.60085 6.58778Z" transform="matrix(1 0 0 -1 302.54 18.15)"/><path d="M6.45727 3.88392 6.45727 0 5.40036 0 5.40036 3.849C5.40036 4.45802 5.28149 4.91326 5.04377 5.21471 4.80604 5.51739 4.45006 5.66872 3.97583 5.66872 3.40478 5.66872 2.95445 5.48675 2.62482 5.12281 2.29519 4.76009 2.13037 4.26441 2.13037 3.63578L2.13037 0 1.06794 0 1.06794 6.43338 2.13037 6.43338 2.13037 5.43345C2.38403 5.82068 2.6818 6.10987 3.02369 6.30103 3.36681 6.4922 3.76261 6.58778 4.2111 6.58778 4.95002 6.58778 5.50881 6.35925 5.88746 5.90216 6.26734 5.44508 6.45727 4.77233 6.45727 3.88392Z" transform="matrix(1 0 0 -1 309.737 18.15)"/><path d="M1.10838 6.43338 2.16529 6.43338 2.16529 0 1.10838 0 1.10838 6.43338ZM1.10838 8.93872 2.16529 8.93872 2.16529 7.59874 1.10838 7.59874 1.10838 8.93872Z" transform="matrix(1 0 0 -1 320.933 18.15)"/><path d="M6.45727 3.88392 6.45727 0 5.40036 0 5.40036 3.849C5.40036 4.45802 5.28149 4.91326 5.04377 5.21471 4.80604 5.51739 4.45006 5.66872 3.97583 5.66872 3.40478 5.66872 2.95445 5.48675 2.62482 5.12281 2.29519 4.76009 2.13037 4.26441 2.13037 3.63578L2.13037 0 1.06794 0 1.06794 6.43338 2.13037 6.43338 2.13037 5.43345C2.38403 5.82068 2.6818 6.10987 3.02369 6.30103 3.36681 6.4922 3.76261 6.58778 4.2111 6.58778 4.95002 6.58778 5.50881 6.35925 5.88746 5.90216 6.26734 5.44508 6.45727 4.77233 6.45727 3.88392Z" transform="matrix(1 0 0 -1 324.201 18.15)"/><path d="M5.72754 3.21117C5.72754 3.98809 5.56763 4.59771 5.2478 5.04009 4.92797 5.48247 4.48866 5.70365 3.92987 5.70365 3.36986 5.70365 2.92994 5.48247 2.61011 5.04009 2.29028 4.59771 2.13037 3.98809 2.13037 3.21117 2.13037 2.43426 2.29028 1.82463 2.61011 1.38226 2.92994 0.939885 3.36986 0.7187 3.92987 0.7187 4.48866 0.7187 4.92797 0.939885 5.2478 1.38226 5.56763 1.82463 5.72754 2.43426 5.72754 3.21117ZM2.13037 5.45734C2.35338 5.83967 2.63401 6.12334 2.97222 6.30839 3.31166 6.49464 3.71665 6.58778 4.18721 6.58778 4.96901 6.58778 5.60378 6.27774 6.09149 5.6577 6.58043 5.03765 6.82489 4.22213 6.82489 3.21117 6.82489 2.20021 6.58043 1.3841 6.09149 0.762815 5.60378 0.14276 4.96901-0.167268 4.18721-0.167268 3.71665-0.167268 3.31166-0.074137 2.97222 0.112125 2.63401 0.298386 2.35338 0.58268 2.13037 0.965006L2.13037 0 1.06794 0 1.06794 8.93872 2.13037 8.93872 2.13037 5.45734Z" transform="matrix(1 0 0 -1 335.396 18.15)"/><path d="M4.03281 3.23323C3.17869 3.23323 2.58682 3.13581 2.2572 2.94097 1.92757 2.74613 1.76275 2.41283 1.76275 1.94104 1.76275 1.56607 1.8865 1.26829 2.13404 1.04772 2.38158 0.828374 2.71733 0.7187 3.14133 0.7187 3.72829 0.7187 4.19884 0.926406 4.55299 1.34182 4.90714 1.75723 5.08421 2.30927 5.08421 2.99795L5.08421 3.23323 4.03281 3.23323ZM6.14112 3.6707 6.14112 0 5.08421 0 5.08421 0.976035C4.84281 0.586356 4.54196 0.298386 4.18169 0.112125 3.82143-0.074137 3.38089-0.167268 2.8601-0.167268 2.20205-0.167268 1.67819 0.0177684 1.28851 0.387841 0.900061 0.757912 0.705833 1.25298 0.705833 1.87303 0.705833 2.59601 0.947851 3.14133 1.43189 3.50895 1.91715 3.87657 2.64013 4.06038 3.60085 4.06038L5.08421 4.06038 5.08421 4.16515C5.08421 4.65164 4.92429 5.02783 4.60446 5.29375 4.28463 5.55967 3.83552 5.69262 3.25713 5.69262 2.88951 5.69262 2.53107 5.6485 2.18183 5.56028 1.83382 5.47205 1.49928 5.3397 1.17823 5.16324L1.17823 6.14112C1.56423 6.29061 1.9392 6.40213 2.30315 6.47565 2.66709 6.55041 3.02124 6.58778 3.36558 6.58778 4.29689 6.58778 4.9923 6.34638 5.45183 5.86356 5.91135 5.38198 6.14112 4.65102 6.14112 3.6707Z" transform="matrix(1 0 0 -1 342.863 18.15)"/><path d="M2.15426 8.26046 2.15426 6.43338 4.33058 6.43338 4.33058 5.61174 2.15426 5.61174 2.15426 2.11934C2.15426 1.59487 2.22595 1.25788 2.36932 1.10838 2.51269 0.95888 2.80495 0.88413 3.2461 0.88413L4.33058 0.88413 4.33058 0 3.2461 0C2.42998 0 1.86691 0.15195 1.55688 0.455851 1.24685 0.760977 1.09184 1.31547 1.09184 2.11934L1.09184 5.61174 0.316155 5.61174 0.316155 6.43338 1.09184 6.43338 1.09184 8.26046 2.15426 8.26046Z" transform="matrix(1 0 0 -1 350.072 18.15)"/><path d="M5.73857 6.18707 5.73857 5.19817C5.43957 5.3636 5.13996 5.48736 4.83974 5.56947 4.53952 5.65157 4.23623 5.69262 3.92987 5.69262 3.24365 5.69262 2.7106 5.47512 2.33072 5.04009 1.95207 4.6063 1.76275 3.99665 1.76275 3.21117 1.76275 2.4257 1.95207 1.81544 2.33072 1.38042 2.7106 0.946625 3.24365 0.729729 3.92987 0.729729 4.23623 0.729729 4.53952 0.770779 4.83974 0.852882 5.13996 0.934985 5.43957 1.05875 5.73857 1.22418L5.73857 0.246306C5.44324 0.109061 5.13751 0.00612702 4.82136-0.0624957 4.50643-0.132344 4.17067-0.167268 3.81407-0.167268 2.84478-0.167268 2.07462 0.137245 1.50357 0.746272 0.933759 1.3553 0.648852 2.17693 0.648852 3.21117 0.648852 4.26013 0.936823 5.08481 1.51276 5.68527 2.08993 6.28693 2.88031 6.58778 3.88392 6.58778 4.20866 6.58778 4.52603 6.55408 4.83606 6.48668 5.14609 6.42051 5.44692 6.32065 5.73857 6.18707Z" transform="matrix(1 0 0 -1 354.685 18.15)"/><path d="M6.45727 3.88392 6.45727 0 5.40036 0 5.40036 3.849C5.40036 4.45802 5.28149 4.91326 5.04377 5.21471 4.80604 5.51739 4.45006 5.66872 3.97583 5.66872 3.40478 5.66872 2.95445 5.48675 2.62482 5.12281 2.29519 4.76009 2.13037 4.26441 2.13037 3.63578L2.13037 0 1.06794 0 1.06794 8.93872 2.13037 8.93872 2.13037 5.43345C2.38403 5.82068 2.6818 6.10987 3.02369 6.30103 3.36681 6.4922 3.76261 6.58778 4.2111 6.58778 4.95002 6.58778 5.50881 6.35925 5.88746 5.90216 6.26734 5.44508 6.45727 4.77233 6.45727 3.88392Z" transform="matrix(1 0 0 -1 361.153 18.15)"/><path d="M5.73857 6.18707 5.73857 5.19817C5.43957 5.3636 5.13996 5.48736 4.83974 5.56947 4.53952 5.65157 4.23623 5.69262 3.92987 5.69262 3.24365 5.69262 2.7106 5.47512 2.33072 5.04009 1.95207 4.6063 1.76275 3.99665 1.76275 3.21117 1.76275 2.4257 1.95207 1.81544 2.33072 1.38042 2.7106 0.946625 3.24365 0.729729 3.92987 0.729729 4.23623 0.729729 4.53952 0.770779 4.83974 0.852882 5.13996 0.934985 5.43957 1.05875 5.73857 1.22418L5.73857 0.246306C5.44324 0.109061 5.13751 0.00612702 4.82136-0.0624957 4.50643-0.132344 4.17067-0.167268 3.81407-0.167268 2.84478-0.167268 2.07462 0.137245 1.50357 0.746272 0.933759 1.3553 0.648852 2.17693 0.648852 3.21117 0.648852 4.26013 0.936823 5.08481 1.51276 5.68527 2.08993 6.28693 2.88031 6.58778 3.88392 6.58778 4.20866 6.58778 4.52603 6.55408 4.83606 6.48668 5.14609 6.42051 5.44692 6.32065 5.73857 6.18707Z" transform="matrix(1 0 0 -1 372.348 18.15)"/><path d="M0.999931 2.53843 0.999931 6.43338 2.05684 6.43338 2.05684 2.57887C2.05684 1.96984 2.17509 1.51276 2.4116 1.20764 2.64932 0.903737 3.00591 0.751786 3.48138 0.751786 4.05119 0.751786 4.50153 0.933759 4.83239 1.2977 5.16448 1.66165 5.33051 2.15794 5.33051 2.78657L5.33051 6.43338 6.38742 6.43338 6.38742 0 5.33051 0 5.33051 0.988902C5.07441 0.597997 4.77663 0.307576 4.43719 0.117639 4.09898-0.0722988 3.70562-0.167268 3.25713-0.167268 2.51821-0.167268 1.95698 0.0624957 1.57342 0.522023 1.19109 0.981549 0.999931 1.65368 0.999931 2.53843ZM3.65967 6.58778 3.65967 6.58778Z" transform="matrix(1 0 0 -1 378.816 18.15)"/><path d="M1.10838 8.93872 2.16529 8.93872 2.16529 0 1.10838 0 1.10838 8.93872Z" transform="matrix(1 0 0 -1 386.271 18.15)"/><path d="M2.15426 8.26046 2.15426 6.43338 4.33058 6.43338 4.33058 5.61174 2.15426 5.61174 2.15426 2.11934C2.15426 1.59487 2.22595 1.25788 2.36932 1.10838 2.51269 0.95888 2.80495 0.88413 3.2461 0.88413L4.33058 0.88413 4.33058 0 3.2461 0C2.42998 0 1.86691 0.15195 1.55688 0.455851 1.24685 0.760977 1.09184 1.31547 1.09184 2.11934L1.09184 5.61174 0.316155 5.61174 0.316155 6.43338 1.09184 6.43338 1.09184 8.26046 2.15426 8.26046Z" transform="matrix(1 0 0 -1 389.54 18.15)"/><path d="M1.10838 6.43338 2.16529 6.43338 2.16529 0 1.10838 0 1.10838 6.43338ZM1.10838 8.93872 2.16529 8.93872 2.16529 7.59874 1.10838 7.59874 1.10838 8.93872Z" transform="matrix(1 0 0 -1 394.153 18.15)"/><path d="M0.351079 6.43338 1.47049 6.43338 3.48138 1.03485 5.49227 6.43338 6.61167 6.43338 4.19824 0 2.76268 0 0.351079 6.43338Z" transform="matrix(1 0 0 -1 397.421 18.15)"/><path d="M4.03281 3.23323C3.17869 3.23323 2.58682 3.13581 2.2572 2.94097 1.92757 2.74613 1.76275 2.41283 1.76275 1.94104 1.76275 1.56607 1.8865 1.26829 2.13404 1.04772 2.38158 0.828374 2.71733 0.7187 3.14133 0.7187 3.72829 0.7187 4.19884 0.926406 4.55299 1.34182 4.90714 1.75723 5.08421 2.30927 5.08421 2.99795L5.08421 3.23323 4.03281 3.23323ZM6.14112 3.6707 6.14112 0 5.08421 0 5.08421 0.976035C4.84281 0.586356 4.54196 0.298386 4.18169 0.112125 3.82143-0.074137 3.38089-0.167268 2.8601-0.167268 2.20205-0.167268 1.67819 0.0177684 1.28851 0.387841 0.900061 0.757912 0.705833 1.25298 0.705833 1.87303 0.705833 2.59601 0.947851 3.14133 1.43189 3.50895 1.91715 3.87657 2.64013 4.06038 3.60085 4.06038L5.08421 4.06038 5.08421 4.16515C5.08421 4.65164 4.92429 5.02783 4.60446 5.29375 4.28463 5.55967 3.83552 5.69262 3.25713 5.69262 2.88951 5.69262 2.53107 5.6485 2.18183 5.56028 1.83382 5.47205 1.49928 5.3397 1.17823 5.16324L1.17823 6.14112C1.56423 6.29061 1.9392 6.40213 2.30315 6.47565 2.66709 6.55041 3.02124 6.58778 3.36558 6.58778 4.29689 6.58778 4.9923 6.34638 5.45183 5.86356 5.91135 5.38198 6.14112 4.65102 6.14112 3.6707Z" transform="matrix(1 0 0 -1 404.383 18.15)"/><path d="M2.15426 8.26046 2.15426 6.43338 4.33058 6.43338 4.33058 5.61174 2.15426 5.61174 2.15426 2.11934C2.15426 1.59487 2.22595 1.25788 2.36932 1.10838 2.51269 0.95888 2.80495 0.88413 3.2461 0.88413L4.33058 0.88413 4.33058 0 3.2461 0C2.42998 0 1.86691 0.15195 1.55688 0.455851 1.24685 0.760977 1.09184 1.31547 1.09184 2.11934L1.09184 5.61174 0.316155 5.61174 0.316155 6.43338 1.09184 6.43338 1.09184 8.26046 2.15426 8.26046Z" transform="matrix(1 0 0 -1 411.592 18.15)"/><path d="M1.10838 6.43338 2.16529 6.43338 2.16529 0 1.10838 0 1.10838 6.43338ZM1.10838 8.93872 2.16529 8.93872 2.16529 7.59874 1.10838 7.59874 1.10838 8.93872Z" transform="matrix(1 0 0 -1 416.204 18.15)"/><path d="M3.60085 5.69262C3.03472 5.69262 2.58682 5.47144 2.2572 5.02906 1.92757 4.58669 1.76275 3.98073 1.76275 3.21117 1.76275 2.44161 1.92634 1.83566 2.25352 1.39329 2.58193 0.950914 3.03104 0.729729 3.60085 0.729729 4.16455 0.729729 4.61058 0.951528 4.93899 1.39512 5.26862 1.83995 5.43345 2.44529 5.43345 3.21117 5.43345 3.97338 5.26862 4.57749 4.93899 5.02355 4.61058 5.4696 4.16455 5.69262 3.60085 5.69262ZM3.60085 6.58778C4.51991 6.58778 5.24168 6.28877 5.76614 5.69078 6.29184 5.094 6.55469 4.26748 6.55469 3.21117 6.55469 2.15854 6.29184 1.33202 5.76614 0.731567 5.24168 0.132344 4.51991-0.167268 3.60085-0.167268 2.67812-0.167268 1.95514 0.132344 1.43189 0.731567 0.909863 1.33202 0.648852 2.15854 0.648852 3.21117 0.648852 4.26748 0.909863 5.094 1.43189 5.69078 1.95514 6.28877 2.67812 6.58778 3.60085 6.58778Z" transform="matrix(1 0 0 -1 419.472 18.15)"/><path d="M6.45727 3.88392 6.45727 0 5.40036 0 5.40036 3.849C5.40036 4.45802 5.28149 4.91326 5.04377 5.21471 4.80604 5.51739 4.45006 5.66872 3.97583 5.66872 3.40478 5.66872 2.95445 5.48675 2.62482 5.12281 2.29519 4.76009 2.13037 4.26441 2.13037 3.63578L2.13037 0 1.06794 0 1.06794 6.43338 2.13037 6.43338 2.13037 5.43345C2.38403 5.82068 2.6818 6.10987 3.02369 6.30103 3.36681 6.4922 3.76261 6.58778 4.2111 6.58778 4.95002 6.58778 5.50881 6.35925 5.88746 5.90216 6.26734 5.44508 6.45727 4.77233 6.45727 3.88392Z" transform="matrix(1 0 0 -1 426.669 18.15)"/></g></svg>